<svg width="16" height="16" viewBox="0 0 16 16" fill="none" xmlns="http://www.w3.org/2000/svg">
<g clip-path="url(#clip0_1368_1580)">
<path d="M3.63672 0.115356C3.81438 0.128174 3.9875 0.180072 4.14258 0.2677C4.29762 0.355325 4.43155 0.476642 4.53418 0.622192C4.56826 0.665927 6.8105 3.80356 6.66211 4.65247C6.58949 5.06334 6.30953 5.29804 5.75195 5.76575C5.65952 5.84347 5.44355 6.02579 5.28906 6.16711C5.38591 6.46438 5.50333 6.75487 5.6416 7.03528C6.34648 8.48315 7.51698 9.65266 8.96484 10.3575C9.24519 10.4958 9.53483 10.6142 9.83203 10.7111C9.9679 10.5601 10.1014 10.4071 10.2314 10.2511C10.7019 9.69077 10.9362 9.41055 11.3467 9.33801C12.196 9.20116 15.3362 11.4337 15.377 11.4659C15.5226 11.5686 15.6437 11.7025 15.7314 11.8575C15.8191 12.0125 15.8718 12.1849 15.8848 12.3624C15.8848 13.276 12.5005 15.8849 11.9307 15.8849C11.8751 15.8845 8.51776 15.8225 4.31445 11.6906C0.163466 7.46808 0.115234 4.1016 0.115234 4.06848C0.115908 3.49757 2.72299 0.116122 3.63672 0.115356ZM3.64355 1.20422C2.691 2.0626 1.85891 3.04664 1.16992 4.12805C1.2064 4.56845 1.57129 7.39994 5.05664 10.9484C8.58895 14.4181 11.4168 14.7913 11.873 14.8302V14.8292C12.9547 14.1402 13.9385 13.3074 14.7969 12.3546C14.7764 12.3362 14.7448 12.3084 14.7012 12.2716C13.7024 11.5393 12.6326 10.909 11.5078 10.3907C11.4242 10.4649 11.2041 10.7274 11.0391 10.924C10.8173 11.2151 10.565 11.4825 10.2881 11.7218C10.2318 11.7622 10.1681 11.7913 10.1006 11.8068C10.0328 11.8222 9.96202 11.8238 9.89355 11.8116C9.41179 11.7004 8.94571 11.5297 8.50586 11.3038C6.84576 10.4957 5.50369 9.15425 4.69531 7.49426C4.4698 7.05438 4.2997 6.58821 4.18848 6.10657C4.17662 6.03809 4.17793 5.9673 4.19336 5.89954C4.20879 5.8318 4.238 5.76763 4.27832 5.71106C4.51665 5.43516 4.78325 5.18495 5.07324 4.96399C5.26024 4.81476 5.43876 4.65514 5.60742 4.48547C5.08865 3.36337 4.45906 2.29523 3.72852 1.29797C3.69278 1.25699 3.66458 1.22524 3.64355 1.20422ZM8.52539 3.26965C9.64028 3.27091 10.7097 3.71373 11.498 4.50208C12.2863 5.2904 12.7292 6.35992 12.7305 7.47473H11.6797C11.6789 6.63861 11.3461 5.8365 10.7549 5.24524C10.1636 4.65396 9.36159 4.32127 8.52539 4.32043V3.26965Z" fill="#E0BF8C"/>
<path d="M3.63672 0.115356C3.81438 0.128174 3.9875 0.180072 4.14258 0.2677C4.29762 0.355325 4.43155 0.476642 4.53418 0.622192C4.56826 0.665927 6.8105 3.80356 6.66211 4.65247C6.58949 5.06334 6.30953 5.29804 5.75195 5.76575C5.65952 5.84347 5.44355 6.02579 5.28906 6.16711C5.38591 6.46438 5.50333 6.75487 5.6416 7.03528C6.34648 8.48315 7.51698 9.65266 8.96484 10.3575C9.24519 10.4958 9.53483 10.6142 9.83203 10.7111C9.9679 10.5601 10.1014 10.4071 10.2314 10.2511C10.7019 9.69077 10.9362 9.41055 11.3467 9.33801C12.196 9.20116 15.3362 11.4337 15.377 11.4659C15.5226 11.5686 15.6437 11.7025 15.7314 11.8575C15.8191 12.0125 15.8718 12.1849 15.8848 12.3624C15.8848 13.276 12.5005 15.8849 11.9307 15.8849C11.8751 15.8845 8.51776 15.8225 4.31445 11.6906C0.163466 7.46808 0.115234 4.1016 0.115234 4.06848C0.115908 3.49757 2.72299 0.116122 3.63672 0.115356ZM3.64355 1.20422C2.691 2.0626 1.85891 3.04664 1.16992 4.12805C1.2064 4.56845 1.57129 7.39994 5.05664 10.9484C8.58895 14.4181 11.4168 14.7913 11.873 14.8302V14.8292C12.9547 14.1402 13.9385 13.3074 14.7969 12.3546C14.7764 12.3362 14.7448 12.3084 14.7012 12.2716C13.7024 11.5393 12.6326 10.909 11.5078 10.3907C11.4242 10.4649 11.2041 10.7274 11.0391 10.924C10.8173 11.2151 10.565 11.4825 10.2881 11.7218C10.2318 11.7622 10.1681 11.7913 10.1006 11.8068C10.0328 11.8222 9.96202 11.8238 9.89355 11.8116C9.41179 11.7004 8.94571 11.5297 8.50586 11.3038C6.84576 10.4957 5.50369 9.15425 4.69531 7.49426C4.4698 7.05438 4.2997 6.58821 4.18848 6.10657C4.17662 6.03809 4.17793 5.9673 4.19336 5.89954C4.20879 5.8318 4.238 5.76763 4.27832 5.71106C4.51665 5.43516 4.78325 5.18495 5.07324 4.96399C5.26024 4.81476 5.43876 4.65514 5.60742 4.48547C5.08865 3.36337 4.45906 2.29523 3.72852 1.29797C3.69278 1.25699 3.66458 1.22524 3.64355 1.20422ZM8.52539 3.26965C9.64028 3.27091 10.7097 3.71373 11.498 4.50208C12.2863 5.2904 12.7292 6.35992 12.7305 7.47473H11.6797C11.6789 6.63861 11.3461 5.8365 10.7549 5.24524C10.1636 4.65396 9.36159 4.32127 8.52539 4.32043V3.26965Z" stroke="#E0BF8C"/>
<path d="M8.52539 0.640991C10.3371 0.643078 12.0744 1.36385 13.3555 2.6449C14.6362 3.92584 15.3562 5.6626 15.3584 7.474H14.3076C14.3057 5.94133 13.696 4.47191 12.6123 3.38806C11.5284 2.30411 10.0583 1.69456 8.52539 1.69275V0.640991Z" fill="#E0BF8C"/>
<path d="M8.52539 0.640991C10.3371 0.643078 12.0744 1.36385 13.3555 2.6449C14.6362 3.92584 15.3562 5.6626 15.3584 7.474H14.3076C14.3057 5.94133 13.696 4.47191 12.6123 3.38806C11.5284 2.30411 10.0583 1.69456 8.52539 1.69275V0.640991Z" stroke="#E0BF8C"/>
</g>
<defs>
<clipPath id="clip0_1368_1580">
<rect width="16" height="16" fill="white"/>
</clipPath>
</defs>
</svg>
