<svg width="16" height="16" viewBox="0 0 16 16" fill="none" xmlns="http://www.w3.org/2000/svg">
<g clip-path="url(#clip0_282_243)">
<path d="M9.61619 14.5731C9.48379 14.6061 9.35041 14.635 9.21622 14.6598C8.86719 14.7247 8.63645 15.0604 8.701 15.4097C8.73148 15.5749 8.82556 15.7216 8.96302 15.8182C9.03303 15.8677 9.11225 15.9026 9.19598 15.9209C9.27973 15.9392 9.36629 15.9405 9.45055 15.9248C9.61039 15.8951 9.76929 15.8606 9.92704 15.8213C10.2717 15.7355 10.4817 15.3864 10.3957 15.0419C10.3099 14.6971 9.96105 14.4873 9.61619 14.5731ZM14.3727 5.95175C14.4159 6.08242 14.4999 6.19575 14.6124 6.27498C14.7735 6.38844 14.9843 6.42662 15.1855 6.3601C15.5228 6.24812 15.7055 5.88444 15.5939 5.54734C15.5428 5.39304 15.487 5.24033 15.4266 5.08942C15.2947 4.75959 14.9205 4.599 14.5905 4.73094C14.2609 4.8628 14.1002 5.23704 14.2323 5.56698C14.283 5.69377 14.3298 5.82209 14.3727 5.95175ZM11.7063 13.6548C11.5923 13.7301 11.4761 13.8019 11.3577 13.8701C11.0499 14.0477 10.9445 14.4411 11.122 14.7488C11.1685 14.8296 11.2321 14.8993 11.3083 14.9531C11.5067 15.0927 11.7762 15.1136 12.0005 14.9844C12.1414 14.9032 12.2797 14.8177 12.4154 14.7281C12.7116 14.5323 12.7932 14.1333 12.5973 13.8369C12.4015 13.5404 12.0026 13.4589 11.7063 13.6548ZM15.9939 7.7482C15.9799 7.39319 15.6808 7.11687 15.3257 7.13073C14.9711 7.14473 14.6945 7.44385 14.7085 7.79873C14.7138 7.93441 14.7152 8.07212 14.712 8.20767C14.7071 8.4303 14.8159 8.62875 14.9852 8.74803C15.0895 8.82156 15.2134 8.86228 15.341 8.865C15.696 8.87288 15.9902 8.5913 15.9981 8.23611C16.0016 8.07415 16.0003 7.91006 15.9939 7.7482ZM14.2677 11.9627C13.9831 11.7491 13.5803 11.8071 13.3671 12.0913C13.2852 12.2005 13.1999 12.3071 13.1114 12.4111C12.8813 12.6814 12.9138 13.0875 13.1842 13.3177C13.1996 13.3308 13.2152 13.3428 13.2313 13.3541C13.5001 13.5436 13.8736 13.5 14.0909 13.245C14.1965 13.1209 14.2983 12.9935 14.3961 12.8632C14.6093 12.579 14.5516 12.176 14.2677 11.9627ZM15.2132 9.63759C14.8743 9.53132 14.5133 9.72 14.4071 10.059C14.3662 10.1893 14.3214 10.3183 14.2728 10.446C14.166 10.7265 14.2683 11.0352 14.5029 11.2006C14.5468 11.2315 14.5945 11.2568 14.6448 11.2759C14.9766 11.4025 15.3483 11.236 15.4748 10.904C15.5325 10.7522 15.5858 10.5987 15.6346 10.4437C15.7407 10.1047 15.5521 9.74387 15.2132 9.63759ZM6.80993 14.6656C6.23947 14.5635 5.68483 14.3873 5.16013 14.1413C5.15393 14.1381 5.1484 14.1344 5.1419 14.1314C5.01825 14.0733 4.89633 14.0116 4.77629 13.9463C4.77588 13.9458 4.77512 13.9455 4.77447 13.9452C4.55398 13.8238 4.34035 13.6903 4.13454 13.5453C1.10884 11.4139 0.381345 7.2183 2.51287 4.19264C2.97636 3.53496 3.53725 2.98628 4.16257 2.5514C4.17027 2.54604 4.17798 2.5407 4.18561 2.5353C6.38912 1.01702 9.38114 0.914703 11.7209 2.47487L11.2184 3.20096C11.0787 3.40306 11.1646 3.55033 11.4092 3.52832L13.5921 3.3329C13.837 3.31088 13.9834 3.09905 13.9175 2.86256L13.3314 0.750575C13.2657 0.513808 13.0977 0.485468 12.9579 0.687532L12.4542 1.41534C10.7371 0.262699 8.67765 -0.176819 6.63352 0.177643C6.4289 0.213147 6.22572 0.256516 6.02444 0.307652C6.02289 0.307927 6.02166 0.308099 6.02042 0.308374C6.01268 0.310266 6.00484 0.312777 5.9973 0.314875C4.23462 0.767532 2.6967 1.7956 1.5993 3.26242C1.59005 3.2734 1.58052 3.28413 1.57178 3.29606C1.53512 3.34553 1.49906 3.39543 1.46362 3.44578C1.4054 3.52846 1.34877 3.61226 1.29378 3.69713C1.28693 3.70731 1.28171 3.71766 1.27572 3.72794C0.370133 5.13125 -0.0666682 6.7536 0.00824147 8.40526C0.00841344 8.4107 0.0081039 8.41616 0.00824147 8.42174C0.015674 8.58407 0.0281535 8.74613 0.0456619 8.90769C0.0465906 8.91807 0.048895 8.92791 0.050649 8.9383C0.0685323 9.10113 0.0914496 9.26338 0.119368 9.4248C0.40635 11.0804 1.18736 12.5703 2.35768 13.7295C2.3604 13.7322 2.36322 13.7352 2.36597 13.738C2.36693 13.7391 2.368 13.7396 2.36893 13.7406C2.68636 14.0538 3.02908 14.3402 3.39362 14.597C4.35734 15.276 5.43046 15.7249 6.58293 15.9317C6.93261 15.9946 7.26664 15.7618 7.32938 15.4123C7.39208 15.0625 7.15951 14.7282 6.80993 14.6656Z" fill="#E0BF8C"/>
<path d="M7.60558 2.86151C7.31794 2.86151 7.08496 3.0947 7.08496 3.38192V8.56669L11.8268 11.018C11.9005 11.0562 11.9823 11.0761 12.0653 11.0761C12.2536 11.0761 12.4355 10.9735 12.528 10.7946C12.6599 10.5392 12.5601 10.2254 12.3047 10.0935L8.12561 7.93295V3.38192C8.12558 3.0947 7.89287 2.86151 7.60558 2.86151Z" fill="#E0BF8C"/>
</g>
<defs>
<clipPath id="clip0_282_243">
<rect width="16" height="16" fill="white"/>
</clipPath>
</defs>
</svg>
