<svg width="19" height="20" viewBox="0 0 19 20" fill="none" xmlns="http://www.w3.org/2000/svg">
<path d="M8.43555 0.677429C12.6748 0.89214 16.0459 4.39748 16.0459 8.69012L16.0352 9.10223C15.9603 10.5805 15.4837 11.952 14.7148 13.113L18.1963 16.5944C18.8227 17.221 18.8226 18.2364 18.1963 18.863C17.5697 19.4896 16.5534 19.4896 15.9268 18.863L12.4463 15.3825C11.1782 16.2223 9.65835 16.7125 8.02344 16.7126L7.61035 16.7018C3.50778 16.494 0.21853 13.2048 0.0107422 9.10223L0 8.69012C0 4.25912 3.59243 0.666687 8.02344 0.666687L8.43555 0.677429ZM8.02344 4.16669C5.52543 4.16669 3.5 6.19212 3.5 8.69012C3.50021 11.1879 5.52556 13.2126 8.02344 13.2126C10.5211 13.2124 12.5457 11.1878 12.5459 8.69012C12.5459 6.19225 10.5213 4.1669 8.02344 4.16669Z" fill="white"/>
</svg>
