<svg width="888" height="272" viewBox="0 0 888 272" fill="none" xmlns="http://www.w3.org/2000/svg">
<path d="M445.845 0.588867C475.118 0.588867 500.902 6.15087 523.043 17.4521H523.042C545.344 28.7217 562.706 44.5449 574.981 64.9121L575.564 65.8721C587.71 86.0867 593.702 109.562 593.702 136.125C593.702 163.094 587.524 186.879 575.002 207.302L575.003 207.303C562.723 227.692 545.347 243.53 523.024 254.807L523.023 254.806C500.886 266.1 475.11 271.661 445.845 271.661C416.815 271.661 391.171 266.273 369.051 255.332L367.99 254.802L367.981 254.797C345.881 243.516 328.627 227.679 316.354 207.303C304.053 186.878 297.988 163.092 297.988 136.125C297.988 109.158 304.053 85.372 316.354 64.9473C328.627 44.571 345.881 28.7328 367.981 17.4521L367.99 17.4473L368 17.4434C390.357 6.14949 416.354 0.588925 445.845 0.588867ZM445.845 5.58887C416.985 5.58892 391.788 11.0283 370.254 21.9062C348.942 32.7842 332.403 47.9915 320.637 67.5273L320.09 68.4453C308.689 87.7784 302.988 110.338 302.988 136.125L302.992 137.351C303.173 163.035 309.055 185.492 320.637 204.723C332.403 224.259 348.942 239.466 370.254 250.344C391.451 261.052 416.199 266.49 444.495 266.657L445.845 266.661C474.483 266.661 499.458 261.222 520.771 250.344C542.304 239.466 558.955 224.259 570.721 204.723C582.521 185.492 588.514 163.035 588.698 137.351L588.702 136.125C588.702 109.929 582.708 87.0632 570.721 67.5273C559.139 48.2967 542.824 33.2601 521.776 22.4189L520.771 21.9062C499.458 11.0283 474.483 5.58887 445.845 5.58887ZM245.756 155.101H283.385V221.378H245.756V266H159.166V221.378H0.325195V160.162L1.62988 158.73L139.159 7.88086L140.646 6.25H245.756V155.101ZM849.969 155.101H887.598V221.378H849.969V266H763.379V221.378H604.538V160.162L605.843 158.73L743.372 7.88086L744.859 6.25H849.969V155.101ZM5.3252 162.099V216.378H164.166V261H240.756V216.378H278.385V160.101H240.756V11.25H142.854L5.3252 162.099ZM609.538 162.099V216.378H768.379V261H844.969V216.378H882.598V160.101H844.969V11.25H747.067L609.538 162.099ZM164.166 160.101H82.3584L164.166 69.8066V160.101ZM768.379 160.101H686.571L768.378 69.8066L768.379 160.101ZM93.6348 155.101H159.166V82.7715L93.6348 155.101ZM697.848 155.101H763.379L763.378 82.7715L697.848 155.101Z" fill="#E0BF8C"/>
<path d="M446.864 196.372H446.766C419.927 196.372 398.145 174.589 398.145 147.75V84.2021H495.631V147.653C495.631 174.541 473.8 196.372 446.864 196.372Z" stroke="#E0BF8C" stroke-width="4.86214" stroke-miterlimit="10"/>
<path d="M495.581 134.381H455.712V137.298H495.581V134.381Z" fill="#E0BF8C"/>
<path d="M438.21 134.381H398.34V137.298H438.21V134.381Z" fill="#E0BF8C"/>
<path d="M448.415 126.6L448.415 82.8406L445.498 82.8406L445.498 126.6H448.415Z" fill="#E0BF8C"/>
<path d="M448.415 196.127L448.415 145.561H445.498L445.498 196.127H448.415Z" fill="#E0BF8C"/>
<path d="M441.951 116.344L474.041 84.2542H468.498L441.951 110.85V116.344Z" fill="#E0BF8C"/>
<path d="M459.409 135.112L496.847 97.7218V92.179L454.401 134.625L459.409 135.112Z" fill="#E0BF8C"/>
<path d="M469.523 143.135L496.119 116.539L495.924 111.19L464.029 143.135H469.523Z" fill="#E0BF8C"/>
<path d="M406.12 132.436H398.34V135.839H406.12V132.436Z" fill="#E0BF8C"/>
<path d="M487.606 83.2327L447.591 123.297V128.791L492.663 83.7189L487.606 83.2327Z" fill="#E0BF8C"/>
<path d="M399.455 158.889L422.55 135.745L417.493 135.259L399.455 153.346V158.889Z" fill="#E0BF8C"/>
<path d="M413.848 180.714L445.792 148.721L445.403 143.615L408.84 180.227L413.848 180.714Z" fill="#E0BF8C"/>
<path d="M434.659 136.229L403.201 167.687V173.23L438.84 137.542L434.659 136.229Z" fill="#E0BF8C"/>
<path d="M423.621 189.029L450.216 162.434L450.022 157.134L418.126 189.029H423.621Z" fill="#E0BF8C"/>
<path d="M437.48 194.231L448.518 183.194L448.177 177.992L431.938 194.231H437.48Z" fill="#E0BF8C"/>
<path d="M446.813 124.218C453.66 124.218 459.211 129.769 459.211 136.616C459.211 143.464 453.66 149.015 446.813 149.015C439.966 149.015 434.414 143.464 434.414 136.616C434.414 129.769 439.966 124.218 446.813 124.218ZM446.813 129.713C443 129.713 439.909 132.804 439.909 136.617C439.909 140.43 443 143.522 446.813 143.522C450.626 143.522 453.717 140.43 453.717 136.617C453.717 132.804 450.626 129.713 446.813 129.713Z" fill="#E0BF8C"/>
<path d="M446.812 140.067C448.718 140.067 450.264 138.522 450.264 136.615C450.264 134.709 448.718 133.163 446.812 133.163C444.905 133.163 443.36 134.709 443.36 136.615C443.36 138.522 444.905 140.067 446.812 140.067Z" fill="#E0BF8C"/>
<path d="M446.909 85.6628V127.578C442.697 127.6 439.189 130.597 438.38 134.576H399.455V85.6628H446.909ZM407.234 92.0808V101.367H408.79C409.422 100.881 409.957 100.2 410.443 99.4226C411.561 97.5264 412.144 95.484 412.144 93.3933H418.077V126.699L414.964 127.477V128.255H429.697V127.477L426.585 126.699V93.3933H432.517C432.517 95.5326 433.051 97.575 434.169 99.4226C434.656 100.2 435.24 100.832 435.872 101.367H437.427V92.0808H407.234Z" fill="#E0BF8C"/>
<path d="M495.631 135.984L495.145 154.606L491.984 166.177L485.323 177.603L475.453 187.133L460.137 194.183L446.863 196.371V147.016C451.515 146.811 455.225 142.976 455.225 138.274C455.225 137.481 455.116 136.714 454.919 135.984H495.631ZM477.835 145.075C476.717 145.075 475.793 145.465 475.015 146.242C474.237 146.972 473.654 148.041 473.313 149.354L471.806 154.946C471.125 157.668 469.667 159.03 467.527 159.03H465.388V146.778L467.965 146.145V145.513H455.712V146.145L458.289 146.778V174.248L455.712 174.88V175.513H467.965V174.88L465.388 174.248V160.051H469.277L473.362 171.865C473.751 173.032 474.383 173.957 475.21 174.589C476.036 175.221 477.203 175.513 478.71 175.513H483.961V174.929L481.822 174.297L477.933 162.919C477.106 160.488 474.966 159.273 471.466 159.273H470.396C470.785 159.03 471.174 158.738 471.466 158.398C472.146 157.668 472.729 156.501 473.167 154.946L474.675 149.354C474.869 148.527 475.21 147.847 475.647 147.312C476.085 146.777 476.523 146.437 477.009 146.34V152.368L477.543 152.515C477.981 152.564 478.37 152.612 478.759 152.612C479.731 152.612 480.51 152.272 481.19 151.591C481.822 150.91 482.162 150.035 482.162 148.965C482.162 147.847 481.725 146.923 480.947 146.194C480.121 145.464 479.099 145.075 477.835 145.075Z" fill="#E0BF8C"/>
</svg>
