<svg width="321" height="220" viewBox="0 0 321 220" fill="none" xmlns="http://www.w3.org/2000/svg">
<g opacity="0.1">
<path d="M72.9678 -36.6855C76.5319 -36.4284 79.9944 -35.3829 83.1055 -33.625C86.2166 -31.867 88.8987 -29.44 90.958 -26.5195C91.422 -25.9501 136.642 37.2602 133.658 54.334C132.203 62.5807 126.592 67.295 115.403 76.6807C113.547 78.2415 109.202 81.9006 106.102 84.7373C108.045 90.7027 110.414 96.5215 113.188 102.148C127.33 131.196 150.8 154.666 179.848 168.808C185.475 171.583 191.293 173.951 197.259 175.895C199.985 172.866 202.653 169.786 205.263 166.656C214.701 155.415 219.405 149.793 227.641 148.338C244.714 145.585 307.946 190.574 308.505 191.038C311.426 193.097 313.854 195.779 315.614 198.89C317.374 202.001 318.422 205.464 318.682 209.028C318.682 227.356 250.801 279.683 239.368 279.685C238.704 279.685 171.169 278.725 86.5508 195.541C3.28969 110.846 2.31194 43.3222 2.31152 42.6289C2.31152 31.1869 54.6394 -36.6855 72.9678 -36.6855ZM73.1045 -14.835C53.9936 2.38633 37.2996 22.1134 23.4766 43.8096C24.2042 52.6152 31.491 109.446 101.44 180.661C172.307 250.273 229.044 257.75 238.197 258.53V258.509C259.899 244.685 279.63 227.987 296.853 208.87C296.441 208.501 295.819 207.932 294.943 207.193C274.904 192.5 253.437 179.859 230.868 169.461C229.191 170.948 224.772 176.21 221.461 180.154C217.011 185.996 211.968 191.361 206.412 196.163C205.279 196.977 203.995 197.556 202.635 197.865C201.275 198.175 199.867 198.209 198.493 197.966C188.824 195.734 179.469 192.312 170.642 187.779C137.336 171.566 110.424 144.658 94.2061 111.354C89.6795 102.526 86.262 93.1712 84.0303 83.5039C83.7924 82.1302 83.8292 80.7226 84.1387 79.3633C84.4482 78.004 85.0239 76.7193 85.833 75.584C90.6153 70.0475 95.9592 65.0218 101.778 60.5879C105.531 57.5933 109.109 54.3854 112.493 50.9805C102.085 28.4683 89.4594 7.04955 74.8027 -12.958C74.0856 -13.7806 73.5263 -14.4131 73.1045 -14.835ZM171.042 26.5889C193.409 26.614 214.854 35.5101 230.67 51.3262C246.486 67.1423 255.382 88.5867 255.407 110.954H234.316C234.3 94.1779 227.628 78.093 215.766 66.2305C203.903 54.3679 187.818 47.6964 171.042 47.6797V26.5889Z" fill="white"/>
<path d="M72.9678 -36.6855C76.5319 -36.4284 79.9944 -35.3829 83.1055 -33.625C86.2166 -31.867 88.8987 -29.44 90.958 -26.5195C91.422 -25.9501 136.642 37.2602 133.658 54.334C132.203 62.5807 126.592 67.295 115.403 76.6807C113.547 78.2415 109.202 81.9006 106.102 84.7373C108.045 90.7027 110.414 96.5215 113.188 102.148C127.33 131.196 150.8 154.666 179.848 168.808C185.475 171.583 191.293 173.951 197.259 175.895C199.985 172.866 202.653 169.786 205.263 166.656C214.701 155.415 219.405 149.793 227.641 148.338C244.714 145.585 307.946 190.574 308.505 191.038C311.426 193.097 313.854 195.779 315.614 198.89C317.374 202.001 318.422 205.464 318.682 209.028C318.682 227.356 250.801 279.683 239.368 279.685C238.704 279.685 171.169 278.725 86.5508 195.541C3.28969 110.846 2.31194 43.3222 2.31152 42.6289C2.31152 31.1869 54.6394 -36.6855 72.9678 -36.6855ZM73.1045 -14.835C53.9936 2.38633 37.2996 22.1134 23.4766 43.8096C24.2042 52.6152 31.491 109.446 101.44 180.661C172.307 250.273 229.044 257.75 238.197 258.53V258.509C259.899 244.685 279.63 227.987 296.853 208.87C296.441 208.501 295.819 207.932 294.943 207.193C274.904 192.5 253.437 179.859 230.868 169.461C229.191 170.948 224.772 176.21 221.461 180.154C217.011 185.996 211.968 191.361 206.412 196.163C205.279 196.977 203.995 197.556 202.635 197.865C201.275 198.175 199.867 198.209 198.493 197.966C188.824 195.734 179.469 192.312 170.642 187.779C137.336 171.566 110.424 144.658 94.2061 111.354C89.6795 102.526 86.262 93.1712 84.0303 83.5039C83.7924 82.1302 83.8292 80.7226 84.1387 79.3633C84.4482 78.004 85.0239 76.7193 85.833 75.584C90.6153 70.0475 95.9592 65.0218 101.778 60.5879C105.531 57.5933 109.109 54.3854 112.493 50.9805C102.085 28.4683 89.4594 7.04955 74.8027 -12.958C74.0856 -13.7806 73.5263 -14.4131 73.1045 -14.835ZM171.042 26.5889C193.409 26.614 214.854 35.5101 230.67 51.3262C246.486 67.1423 255.382 88.5867 255.407 110.954H234.316C234.3 94.1779 227.628 78.093 215.766 66.2305C203.903 54.3679 187.818 47.6964 171.042 47.6797V26.5889Z" stroke="white"/>
<path d="M171.04 -26.1401C207.387 -26.0983 242.233 -11.6409 267.934 14.0601C293.635 39.7611 308.092 74.6069 308.134 110.954H287.042C287.006 80.199 274.773 50.7141 253.026 28.9673C231.28 7.22047 201.795 -5.01206 171.04 -5.04834V-26.1401Z" fill="white"/>
<path d="M171.04 -26.1401C207.387 -26.0983 242.233 -11.6409 267.934 14.0601C293.635 39.7611 308.092 74.6069 308.134 110.954H287.042C287.006 80.199 274.773 50.7141 253.026 28.9673C231.28 7.22047 201.795 -5.01206 171.04 -5.04834V-26.1401Z" stroke="white"/>
</g>
</svg>
