<svg width="121" height="29" viewBox="0 0 121 29" fill="none" xmlns="http://www.w3.org/2000/svg">
<g clip-path="url(#clip0_754_2006)">
<path d="M11.522 26.3884H11.5064C7.20331 26.3884 3.71094 22.8961 3.71094 18.593V8.4043H19.3408V18.5774C19.3408 22.8883 15.8407 26.3884 11.522 26.3884Z" stroke="#000E54" stroke-width="0.779547" stroke-miterlimit="10"/>
<path d="M19.3327 16.4492H12.9404V16.9169H19.3327V16.4492Z" fill="#000E54"/>
<path d="M10.1345 16.4492H3.74219V16.9169H10.1345V16.4492Z" fill="#000E54"/>
<path d="M11.7715 15.202L11.7715 8.18604L11.3038 8.18604L11.3038 15.202L11.7715 15.202Z" fill="#000E54"/>
<path d="M11.7715 26.3495L11.7715 18.2422H11.3038L11.3038 26.3495H11.7715Z" fill="#000E54"/>
<path d="M10.7344 13.5571L15.8794 8.41211H14.9907L10.7344 12.6762V13.5571Z" fill="#000E54"/>
<path d="M13.5334 16.5665L19.5359 10.5718V9.68311L12.7305 16.4886L13.5334 16.5665Z" fill="#000E54"/>
<path d="M15.1543 17.8526L19.4184 13.5885L19.3873 12.731L14.2734 17.8526H15.1543Z" fill="#000E54"/>
<path d="M8.98376 7.40283L14.0664 7.40283V6.95849L8.98376 6.95849V7.40283Z" fill="#000E54"/>
<path d="M13.1196 4.16337L11.5216 2.729L9.93129 4.16337L7.98242 3.28248L8.91788 6.36169H14.1642L15.0607 3.28248L13.1196 4.16337ZM13.868 5.84719H9.2219L8.6996 4.16337L10.0872 4.81039L11.5527 3.46178L12.9793 4.81039L14.3669 4.16337L13.868 5.84719Z" fill="#000E54"/>
<path d="M11.5216 2.41773C11.7369 2.41773 11.9114 2.24322 11.9114 2.02796C11.9114 1.81269 11.7369 1.63818 11.5216 1.63818C11.3063 1.63818 11.1318 1.81269 11.1318 2.02796C11.1318 2.24322 11.3063 2.41773 11.5216 2.41773Z" fill="#000E54"/>
<path d="M15.0685 3.04127C15.2837 3.04127 15.4583 2.86676 15.4583 2.65149C15.4583 2.43623 15.2837 2.26172 15.0685 2.26172C14.8532 2.26172 14.6787 2.43623 14.6787 2.65149C14.6787 2.86676 14.8532 3.04127 15.0685 3.04127Z" fill="#000E54"/>
<path d="M7.98255 3.04127C8.19781 3.04127 8.37232 2.86676 8.37232 2.65149C8.37232 2.43623 8.19781 2.26172 7.98255 2.26172C7.76728 2.26172 7.59277 2.43623 7.59277 2.65149C7.59277 2.86676 7.76728 3.04127 7.98255 3.04127Z" fill="#000E54"/>
<path d="M8.37207 3.85951L9.10484 6.09681H13.977L14.6708 3.85951L13.1429 4.54551L11.5214 3.25146L10.1105 4.45976L8.37207 3.85951Z" fill="#000E54"/>
<path d="M4.98946 16.1377H3.74219V16.6834H4.98946V16.1377Z" fill="#000E54"/>
<path d="M18.0543 8.24854L11.6387 14.672V15.5529L18.8651 8.32649L18.0543 8.24854Z" fill="#000E54"/>
<path d="M3.9209 20.3784L7.62374 16.6678L6.81302 16.5898L3.9209 19.4898V20.3784Z" fill="#000E54"/>
<path d="M6.22871 23.8786L11.3503 18.7492L11.288 17.9307L5.42578 23.8007L6.22871 23.8786Z" fill="#000E54"/>
<path d="M9.56515 16.7456L4.52148 21.7893V22.678L10.2356 16.9561L9.56515 16.7456Z" fill="#000E54"/>
<path d="M7.79593 25.2115L12.06 20.9474L12.0289 20.0977L6.91504 25.2115H7.79593Z" fill="#000E54"/>
<path d="M10.0176 26.0456L11.7872 24.276L11.7326 23.4419L9.12891 26.0456H10.0176Z" fill="#000E54"/>
<path d="M11.5146 14.8203C12.6123 14.8205 13.502 15.7109 13.502 16.8086C13.5017 17.9061 12.6122 18.7957 11.5146 18.7959C10.4169 18.7959 9.5266 17.9062 9.52637 16.8086C9.52637 15.7107 10.4168 14.8203 11.5146 14.8203ZM11.5146 15.7012C10.9034 15.7012 10.4073 16.1963 10.4072 16.8076C10.4072 17.419 10.9033 17.915 11.5146 17.915C12.1258 17.9148 12.6211 17.4188 12.6211 16.8076C12.621 16.1965 12.1257 15.7014 11.5146 15.7012Z" fill="#000E54"/>
<path d="M11.5134 17.3614C11.8191 17.3614 12.0669 17.1136 12.0669 16.8079C12.0669 16.5022 11.8191 16.2544 11.5134 16.2544C11.2078 16.2544 10.96 16.5022 10.96 16.8079C10.96 17.1136 11.2078 17.3614 11.5134 17.3614Z" fill="#000E54"/>
<path d="M11.5293 8.63818V15.3579C10.8541 15.3616 10.2918 15.8422 10.1621 16.48H3.9209V8.63818H11.5293ZM5.16797 9.66748V11.1558H5.41797C5.51914 11.0778 5.60476 10.9688 5.68262 10.8442C5.8619 10.5402 5.95508 10.2126 5.95508 9.87744H6.90625V15.2173L6.40723 15.3423V15.4673H8.76953V15.3423L8.27051 15.2173V9.87744H9.22168C9.22168 10.2204 9.30801 10.548 9.4873 10.8442C9.5652 10.9688 9.65852 11.0701 9.75977 11.1558H10.0088V9.66748H5.16797Z" fill="#000E54"/>
<path d="M19.3398 16.7065L19.2627 19.6919L18.7559 21.5474L17.6875 23.3794L16.1055 24.9077L13.6494 26.0376L11.5215 26.3882V18.4722C12.2674 18.4394 12.8623 17.8267 12.8623 17.0728C12.8623 16.9459 12.8441 16.8234 12.8125 16.7065H19.3398ZM16.4873 18.1646C16.3081 18.1646 16.1598 18.2265 16.0352 18.3511C15.9105 18.468 15.8163 18.6397 15.7617 18.8501L15.5205 19.7466C15.4114 20.183 15.1777 20.4017 14.835 20.4019H14.4912V18.437L14.9043 18.3354V18.2349H12.9404V18.3354L13.3535 18.437V22.8413L12.9404 22.9429V23.0444H14.9043V22.9429L14.4912 22.8413V20.5649H15.1152L15.7695 22.4595C15.8319 22.6466 15.9339 22.7947 16.0664 22.896C16.1989 22.9973 16.3863 23.0444 16.6279 23.0444H17.4697V22.9507L17.126 22.8491L16.5029 21.0249C16.3703 20.6353 16.0269 20.4409 15.4658 20.4409H15.2949C15.3572 20.402 15.4191 20.3548 15.4658 20.3003C15.575 20.1834 15.6691 19.996 15.7393 19.7466L15.9805 18.8501C16.0117 18.7177 16.0666 18.6086 16.1367 18.5229C16.2068 18.4373 16.2766 18.3823 16.3545 18.3667V19.3335L16.4404 19.3569C16.5106 19.3647 16.5734 19.3726 16.6357 19.3726C16.7914 19.3725 16.9164 19.3175 17.0254 19.2085C17.1265 19.0994 17.1807 18.9589 17.1807 18.7876C17.1806 18.6085 17.111 18.4601 16.9863 18.3433C16.8538 18.2264 16.6899 18.1646 16.4873 18.1646Z" fill="#000E54"/>
</g>
<path d="M29.5326 4.78583H32.8406V14H29.5326V4.78583ZM25.5857 3.35188H36.7875V6.29076H25.5857V3.35188ZM44.0865 3.35188C45.014 3.35188 45.8091 3.50805 46.4717 3.8204C47.1437 4.13274 47.6548 4.57287 48.005 5.14077C48.3552 5.6992 48.5303 6.36175 48.5303 7.12841C48.5303 7.88561 48.3552 8.54816 48.005 9.11606C47.6548 9.68396 47.1437 10.1241 46.4717 10.4364C45.8091 10.7488 45.014 10.9049 44.0865 10.9049H39.5291V8.29261H43.8735C44.29 8.29261 44.6118 8.18849 44.8389 7.98026C45.0756 7.77203 45.1939 7.48808 45.1939 7.12841C45.1939 6.74981 45.0756 6.46113 44.8389 6.26237C44.6118 6.0636 44.29 5.96422 43.8735 5.96422H39.813L41.3038 4.45929V14H37.9958V3.35188H44.0865ZM50.8329 12.0833V9.44261H58.1305V12.0833H50.8329ZM56.7249 3.35188L61.4953 14H57.9601L54.0984 4.78583H54.9928L51.1169 14H47.5959L52.3521 3.35188H56.7249ZM62.3977 3.35188H65.7057V14H62.3977V3.35188ZM70.689 3.35188H73.997V14H70.689V3.35188ZM64.2576 7.11422H72.0236V10.0389H64.2576V7.11422ZM87.886 9.471C87.7724 10.4175 87.4411 11.2504 86.8921 11.9698C86.3526 12.6891 85.6333 13.2475 84.7341 13.6451C83.8444 14.0426 82.8222 14.2414 81.6675 14.2414C80.4181 14.2414 79.3249 14.0095 78.3878 13.5457C77.4508 13.0819 76.722 12.4335 76.2014 11.6006C75.6808 10.7677 75.4206 9.79281 75.4206 8.67594C75.4206 7.55907 75.6808 6.58418 76.2014 5.75126C76.722 4.91834 77.4508 4.26999 78.3878 3.8062C79.3249 3.34242 80.4181 3.11053 81.6675 3.11053C82.8222 3.11053 83.8444 3.30929 84.7341 3.70682C85.6333 4.10435 86.3526 4.66278 86.8921 5.38212C87.4411 6.092 87.7724 6.92492 87.886 7.88088H84.5637C84.4691 7.47389 84.294 7.12841 84.0384 6.84447C83.7923 6.55105 83.4705 6.32862 83.073 6.17718C82.6755 6.01628 82.207 5.93583 81.6675 5.93583C81.0617 5.93583 80.5411 6.04467 80.1057 6.26237C79.6703 6.48006 79.3343 6.79714 79.0977 7.2136C78.8611 7.62059 78.7428 8.10804 78.7428 8.67594C78.7428 9.24384 78.8611 9.73129 79.0977 10.1383C79.3343 10.5453 79.6703 10.8624 80.1057 11.0895C80.5411 11.3072 81.0617 11.4161 81.6675 11.4161C82.207 11.4161 82.6755 11.3451 83.073 11.2031C83.4705 11.0517 83.7923 10.8292 84.0384 10.5358C84.294 10.2424 84.4691 9.88746 84.5637 9.471H87.886ZM95.1889 14.2414C93.9111 14.2414 92.7895 14.0095 91.8241 13.5457C90.8681 13.0819 90.1204 12.4335 89.5809 11.6006C89.0509 10.7677 88.7858 9.79281 88.7858 8.67594C88.7858 7.55907 89.0509 6.58418 89.5809 5.75126C90.1204 4.91834 90.8681 4.26999 91.8241 3.8062C92.7895 3.34242 93.9111 3.11053 95.1889 3.11053C96.4667 3.11053 97.5835 3.34242 98.5395 3.8062C99.5049 4.26999 100.253 4.91834 100.783 5.75126C101.322 6.58418 101.592 7.55907 101.592 8.67594C101.592 9.79281 101.322 10.7677 100.783 11.6006C100.253 12.4335 99.5049 13.0819 98.5395 13.5457C97.5835 14.0095 96.4667 14.2414 95.1889 14.2414ZM95.1889 11.3025C95.8231 11.3025 96.3673 11.1984 96.8216 10.9901C97.2854 10.7724 97.6403 10.4696 97.8864 10.0815C98.1325 9.68396 98.2556 9.21545 98.2556 8.67594C98.2556 8.13644 98.1325 7.67265 97.8864 7.28459C97.6403 6.88706 97.2854 6.58418 96.8216 6.37595C96.3673 6.15825 95.8231 6.04941 95.1889 6.04941C94.5547 6.04941 94.0058 6.15825 93.542 6.37595C93.0877 6.58418 92.7375 6.88706 92.4914 7.28459C92.2453 7.67265 92.1222 8.13644 92.1222 8.67594C92.1222 9.21545 92.2453 9.68396 92.4914 10.0815C92.7375 10.4696 93.0877 10.7724 93.542 10.9901C94.0058 11.1984 94.5547 11.3025 95.1889 11.3025ZM118.98 3.35188V14H115.828V4.57287L116.481 4.64385L112.634 14H109.34L105.478 4.67225L106.131 4.58706V14H102.994V3.35188H108.091L111.597 12.2537H110.391L113.869 3.35188H118.98Z" fill="#000E54"/>
<circle cx="35.0024" cy="22.0576" r="1.12352" fill="#000E54"/>
<path d="M39.9699 25.5576V17.848H42.3445V23.6765L41.7277 23.1728L45.8292 17.848H48.3374L42.1389 25.5576H39.9699ZM43.6602 21.9495L45.418 20.531L48.4505 25.5576H45.7367L43.6602 21.9495ZM52.8201 25.7324C51.8949 25.7324 51.0828 25.5645 50.3838 25.2287C49.6917 24.8929 49.1503 24.4235 48.7597 23.8204C48.3759 23.2173 48.184 22.5115 48.184 21.7028C48.184 20.8942 48.3759 20.1883 48.7597 19.5853C49.1503 18.9822 49.6917 18.5128 50.3838 18.177C51.0828 17.8412 51.8949 17.6733 52.8201 17.6733C53.7452 17.6733 54.5539 17.8412 55.246 18.177C55.945 18.5128 56.4864 18.9822 56.8702 19.5853C57.2608 20.1883 57.4561 20.8942 57.4561 21.7028C57.4561 22.5115 57.2608 23.2173 56.8702 23.8204C56.4864 24.4235 55.945 24.8929 55.246 25.2287C54.5539 25.5645 53.7452 25.7324 52.8201 25.7324ZM52.8201 23.6045C53.2792 23.6045 53.6732 23.5291 54.0022 23.3784C54.338 23.2208 54.595 23.0015 54.7731 22.7205C54.9513 22.4327 55.0404 22.0934 55.0404 21.7028C55.0404 21.3122 54.9513 20.9764 54.7731 20.6954C54.595 20.4076 54.338 20.1883 54.0022 20.0375C53.6732 19.8799 53.2792 19.8011 52.8201 19.8011C52.3609 19.8011 51.9634 19.8799 51.6276 20.0375C51.2987 20.1883 51.0451 20.4076 50.867 20.6954C50.6888 20.9764 50.5997 21.3122 50.5997 21.7028C50.5997 22.0934 50.6888 22.4327 50.867 22.7205C51.0451 23.0015 51.2987 23.2208 51.6276 23.3784C51.9634 23.5291 52.3609 23.6045 52.8201 23.6045ZM58.4709 17.848H60.8661V25.5576H58.4709V17.848ZM64.4741 17.848H66.8693V25.5576H64.4741V17.848ZM59.8176 20.5721H65.4404V22.6896H59.8176V20.5721ZM76.9253 22.2785C76.8431 22.9638 76.6032 23.5668 76.2057 24.0877C75.8151 24.6085 75.2943 25.0128 74.6433 25.3006C73.9991 25.5885 73.259 25.7324 72.4229 25.7324C71.5183 25.7324 70.7268 25.5645 70.0483 25.2287C69.3699 24.8929 68.8422 24.4235 68.4653 23.8204C68.0884 23.2173 67.8999 22.5115 67.8999 21.7028C67.8999 20.8942 68.0884 20.1883 68.4653 19.5853C68.8422 18.9822 69.3699 18.5128 70.0483 18.177C70.7268 17.8412 71.5183 17.6733 72.4229 17.6733C73.259 17.6733 73.9991 17.8172 74.6433 18.105C75.2943 18.3928 75.8151 18.7972 76.2057 19.318C76.6032 19.832 76.8431 20.435 76.9253 21.1272H74.5199C74.4514 20.8325 74.3246 20.5824 74.1396 20.3768C73.9614 20.1643 73.7284 20.0033 73.4406 19.8936C73.1527 19.7771 72.8135 19.7189 72.4229 19.7189C71.9843 19.7189 71.6074 19.7977 71.2922 19.9553C70.9769 20.1129 70.7336 20.3425 70.5623 20.644C70.391 20.9387 70.3053 21.2916 70.3053 21.7028C70.3053 22.114 70.391 22.4669 70.5623 22.7616C70.7336 23.0563 70.9769 23.2859 71.2922 23.4503C71.6074 23.6079 71.9843 23.6868 72.4229 23.6868C72.8135 23.6868 73.1527 23.6354 73.4406 23.5326C73.7284 23.4229 73.9614 23.2619 74.1396 23.0494C74.3246 22.837 74.4514 22.58 74.5199 22.2785H76.9253ZM79.1392 24.1699V22.2579H84.4228V24.1699H79.1392ZM83.4051 17.848L86.859 25.5576H84.2995L81.5034 18.8862H82.151L79.3448 25.5576H76.7954L80.2391 17.848H83.4051ZM88.7974 17.848H96.5584V25.5576H94.1632V18.8862L95.2426 19.9656H90.1337L91.1411 19.1844C91.189 19.5955 91.2199 19.993 91.2336 20.3768C91.2541 20.7605 91.2644 21.1272 91.2644 21.4767C91.2644 22.4704 91.1719 23.2824 90.9869 23.9129C90.8087 24.5365 90.5209 24.9957 90.1234 25.2904C89.7328 25.5782 89.2222 25.7221 88.5918 25.7221C88.3108 25.7221 88.0298 25.6913 87.7489 25.6296C87.4747 25.5679 87.2246 25.4788 86.9985 25.3623V23.3887C87.3 23.5052 87.5775 23.5634 87.8311 23.5634C88.256 23.5634 88.5609 23.3749 88.746 22.998C88.931 22.6211 89.0235 21.9975 89.0235 21.1272C89.0235 20.6954 89.0029 20.2089 88.9618 19.6675C88.9276 19.1261 88.8727 18.5196 88.7974 17.848ZM100.287 18.8862H102.682V25.5576H100.287V18.8862ZM97.4297 17.848H105.54V19.9759H97.4297V17.848Z" fill="#000E54"/>
<circle cx="110.6" cy="22.0576" r="1.12352" fill="#000E54"/>
<defs>
<clipPath id="clip0_754_2006">
<rect width="22.981" height="25.2807" fill="white" transform="translate(0 1.63818)"/>
</clipPath>
</defs>
</svg>
