<svg width="212" height="242" viewBox="0 0 212 242" fill="none" xmlns="http://www.w3.org/2000/svg">
<g clip-path="url(#clip0_1817_4543)">
<path d="M105.8 236.5H105.6C50.4 236.5 5.59998 191.7 5.59998 136.5V5.80005H206.1V136.3C206.1 191.6 161.2 236.5 105.8 236.5Z" stroke="#E0BF8C" stroke-width="10" stroke-miterlimit="10"/>
<path d="M206 109H124V115H206V109Z" fill="#E0BF8C"/>
<path d="M88 109H6V115H88V109Z" fill="#E0BF8C"/>
<path d="M109 93L109 3L103 3L103 93L109 93Z" fill="#E0BF8C"/>
<path d="M109 236L109 132L103 132L103 236H109Z" fill="#E0BF8C"/>
<path d="M95.7 71.8999L161.7 5.8999H150.3L95.7 60.5999V71.8999Z" fill="#E0BF8C"/>
<path d="M131.6 110.5L208.6 33.6V22.2L121.3 109.5L131.6 110.5Z" fill="#E0BF8C"/>
<path d="M152.4 127L207.1 72.3L206.7 61.3L141.1 127H152.4Z" fill="#E0BF8C"/>
<path d="M22 105H6V112H22V105Z" fill="#E0BF8C"/>
<path d="M189.6 3.80005L107.3 86.2V97.5L200 4.80005L189.6 3.80005Z" fill="#E0BF8C"/>
<path d="M8.29999 159.4L55.8 111.8L45.4 110.8L8.29999 148V159.4Z" fill="#E0BF8C"/>
<path d="M37.9 204.3L103.6 138.5L102.8 128L27.6 203.3L37.9 204.3Z" fill="#E0BF8C"/>
<path d="M80.7 112.8L16 177.5V188.9L89.2999 115.5L80.7 112.8Z" fill="#E0BF8C"/>
<path d="M58 221.4L112.7 166.7L112.3 155.8L46.7 221.4H58Z" fill="#E0BF8C"/>
<path d="M86.5 232.1L109.2 209.4L108.5 198.7L75.1 232.1H86.5Z" fill="#E0BF8C"/>
<path d="M105.7 88.1001C119.783 88.1001 131.2 99.5168 131.2 113.6C131.2 127.683 119.783 139.1 105.7 139.1C91.6168 139.1 80.2 127.683 80.2 113.6C80.2 99.5168 91.6168 88.1001 105.7 88.1001ZM105.7 99.3999C97.8576 99.3999 91.4999 105.758 91.4998 113.6C91.4998 121.443 97.8576 127.8 105.7 127.8C113.542 127.8 119.9 121.443 119.9 113.6C119.9 105.758 113.542 99.3999 105.7 99.3999Z" fill="#E0BF8C"/>
<path d="M105.7 120.7C109.621 120.7 112.8 117.521 112.8 113.6C112.8 109.679 109.621 106.5 105.7 106.5C101.779 106.5 98.6 109.679 98.6 113.6C98.6 117.521 101.779 120.7 105.7 120.7Z" fill="#E0BF8C"/>
<path d="M105.9 8.80005V95.0012C97.2361 95.0485 90.0221 101.215 88.3605 109.4H8.29999V8.80005H105.9ZM24.3 22.0002V41.0999H27.5002C28.8001 40.0999 29.8997 38.6997 30.8996 37.0999C33.1995 33.2 34.3995 29.0003 34.3996 24.7004H46.5998V93.2004L40.2004 94.8V96.3997H70.5002V94.8L64.0998 93.2004V24.7004H76.3C76.3001 29.1003 77.4004 33.3 79.7004 37.0999C80.7004 38.6998 81.9004 39.9999 83.2004 41.0999H86.3996V22.0002H24.3Z" fill="#E0BF8C"/>
<path d="M206.1 112.3L205.1 150.6L198.6 174.4L184.9 197.9L164.6 217.5L133.1 232L105.8 236.5V134.981C115.37 134.562 123 126.673 123 117C123 115.374 122.783 113.798 122.379 112.3H206.1ZM169.5 131C167.2 131 165.3 131.8 163.7 133.4C162.1 134.9 160.9 137.1 160.2 139.8L157.1 151.3C155.7 156.9 152.7 159.7 148.3 159.7H143.9V134.5L149.2 133.2V131.9H124V133.2L129.3 134.5V191L124 192.3V193.6H149.2V192.3L143.9 191V161.8H151.9L160.3 186.1C161.1 188.5 162.4 190.4 164.1 191.7C165.8 193 168.2 193.6 171.3 193.6H182.1V192.4L177.7 191.1L169.7 167.7C168 162.7 163.6 160.2 156.4 160.2H154.2C155 159.7 155.8 159.1 156.4 158.4C157.8 156.9 159 154.5 159.9 151.3L163 139.8C163.4 138.1 164.1 136.7 165 135.6C165.9 134.5 166.8 133.8 167.8 133.6V146L168.9 146.3C169.799 146.4 170.6 146.5 171.4 146.5C173.4 146.5 175 145.8 176.4 144.4C177.7 143 178.4 141.2 178.4 139C178.4 136.7 177.5 134.8 175.9 133.3C174.2 131.8 172.1 131 169.5 131Z" fill="#E0BF8C"/>
</g>
<defs>
<clipPath id="clip0_1817_4543">
<rect width="212" height="242" fill="white"/>
</clipPath>
</defs>
</svg>
