<svg width="983" height="228" viewBox="0 0 983 228" fill="none" xmlns="http://www.w3.org/2000/svg">
<g clip-path="url(#clip0_278_781)">
<path d="M94.3403 213.16H94.2126C58.9786 213.16 30.3828 184.564 30.3828 149.33V65.9043H158.362V149.202C158.362 184.5 129.702 213.16 94.3403 213.16Z" stroke="#E0BF8C" stroke-width="6.38298" stroke-miterlimit="10"/>
<path d="M158.298 131.777H105.958V135.606H158.298V131.777Z" fill="#E0BF8C"/>
<path d="M82.9786 131.777H30.6382V135.606H82.9786V131.777Z" fill="#E0BF8C"/>
<path d="M96.3828 121.564L96.3828 64.1171L92.553 64.1171L92.553 121.564L96.3828 121.564Z" fill="#E0BF8C"/>
<path d="M96.3828 212.84L96.3828 146.457H92.553L92.553 212.84H96.3828Z" fill="#E0BF8C"/>
<path d="M87.8936 108.096L130.021 65.9681H122.745L87.8936 100.883V108.096Z" fill="#E0BF8C"/>
<path d="M110.808 132.734L159.957 83.6489V76.3723L104.234 132.096L110.808 132.734Z" fill="#E0BF8C"/>
<path d="M124.085 143.266L159 108.351L158.745 101.33L116.873 143.266H124.085Z" fill="#E0BF8C"/>
<path d="M73.5602 57.7007L115.177 57.7007V54.0624L73.5602 54.0624V57.7007Z" fill="#E0BF8C"/>
<path d="M107.426 31.1808L94.3405 19.4362L81.3193 31.1808L65.3618 23.9681L73.0214 49.1808H115.979L123.319 23.9681L107.426 31.1808ZM113.553 44.9681H75.5108L71.2342 31.1808L82.5959 36.4787L94.5959 25.4362L106.277 36.4787L117.638 31.1808L113.553 44.9681Z" fill="#E0BF8C"/>
<path d="M94.3404 16.883C96.103 16.883 97.5319 15.4541 97.5319 13.6915C97.5319 11.9289 96.103 10.5 94.3404 10.5C92.5778 10.5 91.1489 11.9289 91.1489 13.6915C91.1489 15.4541 92.5778 16.883 94.3404 16.883Z" fill="#E0BF8C"/>
<path d="M123.383 21.9893C125.146 21.9893 126.574 20.5604 126.574 18.7978C126.574 17.0352 125.146 15.6063 123.383 15.6063C121.62 15.6063 120.191 17.0352 120.191 18.7978C120.191 20.5604 121.62 21.9893 123.383 21.9893Z" fill="#E0BF8C"/>
<path d="M65.3619 21.9893C67.1245 21.9893 68.5534 20.5604 68.5534 18.7978C68.5534 17.0352 67.1245 15.6063 65.3619 15.6063C63.5993 15.6063 62.1704 17.0352 62.1704 18.7978C62.1704 20.5604 63.5993 21.9893 65.3619 21.9893Z" fill="#E0BF8C"/>
<path d="M68.5532 28.6915L74.5532 47.0106H114.447L120.128 28.6915L107.617 34.3085L94.3405 23.7128L82.7873 33.6064L68.5532 28.6915Z" fill="#E0BF8C"/>
<path d="M40.851 129.223H30.6382V133.691H40.851V129.223Z" fill="#E0BF8C"/>
<path d="M147.83 64.6277L95.2979 117.223V124.436L154.468 65.266L147.83 64.6277Z" fill="#E0BF8C"/>
<path d="M32.1064 163.947L62.4256 133.564L55.7873 132.926L32.1064 156.67V163.947Z" fill="#E0BF8C"/>
<path d="M50.9998 192.606L92.9359 150.606L92.4253 143.904L44.4253 191.968L50.9998 192.606Z" fill="#E0BF8C"/>
<path d="M78.3193 134.202L37.0215 175.5V182.777L83.8087 135.926L78.3193 134.202Z" fill="#E0BF8C"/>
<path d="M63.83 203.521L98.7449 168.606L98.4895 161.649L56.6172 203.521H63.83Z" fill="#E0BF8C"/>
<path d="M82.0212 210.351L96.5106 195.862L96.0638 189.032L74.7446 210.351H82.0212Z" fill="#E0BF8C"/>
<path fill-rule="evenodd" clip-rule="evenodd" d="M110.553 134.713C110.553 143.702 103.266 150.989 94.2766 150.989C85.2873 150.989 78 143.702 78 134.713C78 125.723 85.2873 118.436 94.2766 118.436C103.266 118.436 110.553 125.723 110.553 134.713ZM103.34 134.713C103.34 139.719 99.2824 143.777 94.2766 143.777C89.2708 143.777 85.2128 139.719 85.2128 134.713C85.2128 129.707 89.2708 125.649 94.2766 125.649C99.2824 125.649 103.34 129.707 103.34 134.713Z" fill="#E0BF8C"/>
<path d="M94.2765 139.245C96.7794 139.245 98.8085 137.216 98.8085 134.713C98.8085 132.21 96.7794 130.181 94.2765 130.181C91.7736 130.181 89.7446 132.21 89.7446 134.713C89.7446 137.216 91.7736 139.245 94.2765 139.245Z" fill="#E0BF8C"/>
<path fill-rule="evenodd" clip-rule="evenodd" d="M32.1064 132.032V67.8192H94.4043V122.841C88.8742 122.871 84.269 126.808 83.2086 132.032H32.1064ZM79.915 88.4362H81.9575V76.2447H42.3192V88.4362H44.3618C45.1916 87.7979 45.8937 86.9043 46.532 85.883C48.0001 83.3937 48.766 80.7128 48.766 77.9681H56.5533V121.692L52.4681 122.713V123.734H71.8086V122.713L67.7235 121.692V77.9681H75.5107C75.5107 80.7767 76.2128 83.4575 77.6809 85.883C78.3192 86.9043 79.0852 87.7341 79.915 88.4362Z" fill="#E0BF8C"/>
<path fill-rule="evenodd" clip-rule="evenodd" d="M94.3403 148.361C100.449 148.094 105.319 143.057 105.319 136.883C105.319 135.845 105.181 134.839 104.923 133.883H158.362L157.723 158.33L153.574 173.521L144.83 188.521L131.872 201.032L111.766 210.287L94.3403 213.16V148.361ZM136.149 185.777H142.915H143.042V185.011L140.234 184.181L135.128 169.245C134.042 166.053 131.234 164.457 126.638 164.457H125.234C125.745 164.138 126.255 163.755 126.638 163.308C127.532 162.351 128.298 160.819 128.872 158.777L130.851 151.436C131.106 150.351 131.553 149.457 132.128 148.755C132.702 148.053 133.277 147.606 133.915 147.479V155.394L134.617 155.585C134.675 155.592 134.732 155.598 134.789 155.604C135.295 155.661 135.754 155.713 136.213 155.713C137.489 155.713 138.511 155.266 139.404 154.372C140.234 153.479 140.681 152.33 140.681 150.925C140.681 149.457 140.106 148.245 139.085 147.287C138 146.33 136.659 145.819 135 145.819C133.532 145.819 132.319 146.33 131.298 147.351C130.276 148.308 129.511 149.713 129.064 151.436L127.085 158.777C126.191 162.351 124.277 164.138 121.468 164.138H118.659V148.053L122.042 147.223V146.394H105.957V147.223L109.34 148.053V184.117L105.957 184.947V185.777H122.042V184.947L118.659 184.117V165.479H123.766L129.128 180.989C129.638 182.521 130.468 183.734 131.553 184.564C132.638 185.394 134.17 185.777 136.149 185.777Z" fill="#E0BF8C"/>
</g>
<path d="M241.813 40.5537H268.899V116H241.813V40.5537ZM209.495 28.8125H301.217V52.8762H209.495V28.8125ZM360.981 28.8125C368.576 28.8125 375.086 30.0913 380.511 32.6488C386.013 35.2063 390.198 38.81 393.066 43.46C395.933 48.0325 397.367 53.4575 397.367 59.735C397.367 65.935 395.933 71.36 393.066 76.01C390.198 80.66 386.013 84.2638 380.511 86.8212C375.086 89.3788 368.576 90.6575 360.981 90.6575H323.665V69.2675H359.237C362.647 69.2675 365.282 68.415 367.142 66.71C369.08 65.005 370.048 62.68 370.048 59.735C370.048 56.635 369.08 54.2712 367.142 52.6438C365.282 51.0163 362.647 50.2025 359.237 50.2025H325.99L338.196 37.88V116H311.11V28.8125H360.981ZM416.221 100.306V78.6838H475.974V100.306H416.221ZM464.465 28.8125L503.525 116H474.579L442.959 40.5537H450.283L418.546 116H389.716L428.66 28.8125H464.465ZM510.914 28.8125H538.001V116H510.914V28.8125ZM578.804 28.8125H605.891V116H578.804V28.8125ZM526.143 59.6188H589.732V83.5663H526.143V59.6188ZM719.614 78.9163C718.684 86.6663 715.971 93.4863 711.477 99.3763C707.059 105.266 701.169 109.839 693.807 113.094C686.521 116.349 678.151 117.976 668.697 117.976C658.467 117.976 649.515 116.078 641.843 112.28C634.17 108.483 628.203 103.174 623.94 96.3537C619.678 89.5338 617.547 81.5513 617.547 72.4062C617.547 63.2612 619.678 55.2788 623.94 48.4588C628.203 41.6388 634.17 36.33 641.843 32.5325C649.515 28.735 658.467 26.8363 668.697 26.8363C678.151 26.8363 686.521 28.4638 693.807 31.7188C701.169 34.9738 707.059 39.5463 711.477 45.4362C715.971 51.2488 718.684 58.0688 719.614 65.8963H692.411C691.637 62.5637 690.203 59.735 688.11 57.41C686.095 55.0075 683.46 53.1863 680.205 51.9463C676.95 50.6288 673.114 49.97 668.697 49.97C663.737 49.97 659.474 50.8613 655.909 52.6438C652.344 54.4263 649.593 57.0225 647.655 60.4325C645.718 63.765 644.749 67.7562 644.749 72.4062C644.749 77.0562 645.718 81.0475 647.655 84.38C649.593 87.7125 652.344 90.3087 655.909 92.1688C659.474 93.9513 663.737 94.8425 668.697 94.8425C673.114 94.8425 676.95 94.2613 680.205 93.0988C683.46 91.8588 686.095 90.0375 688.11 87.635C690.203 85.2325 691.637 82.3263 692.411 78.9163H719.614ZM779.411 117.976C768.948 117.976 759.765 116.078 751.86 112.28C744.032 108.483 737.91 103.174 733.492 96.3537C729.152 89.5338 726.982 81.5513 726.982 72.4062C726.982 63.2612 729.152 55.2788 733.492 48.4588C737.91 41.6388 744.032 36.33 751.86 32.5325C759.765 28.735 768.948 26.8363 779.411 26.8363C789.873 26.8363 799.018 28.735 806.846 32.5325C814.751 36.33 820.873 41.6388 825.213 48.4588C829.631 55.2788 831.84 63.2612 831.84 72.4062C831.84 81.5513 829.631 89.5338 825.213 96.3537C820.873 103.174 814.751 108.483 806.846 112.28C799.018 116.078 789.873 117.976 779.411 117.976ZM779.411 93.9125C784.603 93.9125 789.06 93.06 792.78 91.355C796.577 89.5725 799.483 87.0925 801.498 83.915C803.513 80.66 804.521 76.8237 804.521 72.4062C804.521 67.9888 803.513 64.1913 801.498 61.0138C799.483 57.7587 796.577 55.2788 792.78 53.5738C789.06 51.7913 784.603 50.9 779.411 50.9C774.218 50.9 769.723 51.7913 765.926 53.5738C762.206 55.2788 759.338 57.7587 757.323 61.0138C755.308 64.1913 754.301 67.9888 754.301 72.4062C754.301 76.8237 755.308 80.66 757.323 83.915C759.338 87.0925 762.206 89.5725 765.926 91.355C769.723 93.06 774.218 93.9125 779.411 93.9125ZM974.214 28.8125V116H948.407V38.81L953.754 39.3913L922.25 116H895.28L863.66 39.6238L869.008 38.9262V116H843.317V28.8125H885.05L913.764 101.701H903.883L932.364 28.8125H974.214Z" fill="white"/>
<circle cx="286.971" cy="176" r="9.19949" fill="white"/>
<path d="M327.641 208V144.873H347.084V192.597L342.034 188.473L375.618 144.873H396.155L345.401 208H327.641ZM357.858 178.457L372.251 166.841L397.081 208H374.86L357.858 178.457ZM432.859 209.431C425.284 209.431 418.635 208.056 412.911 205.307C407.244 202.557 402.811 198.713 399.612 193.775C396.47 188.838 394.899 183.058 394.899 176.437C394.899 169.815 396.47 164.036 399.612 159.098C402.811 154.16 407.244 150.316 412.911 147.567C418.635 144.817 425.284 143.442 432.859 143.442C440.434 143.442 447.056 144.817 452.723 147.567C458.446 150.316 462.879 154.16 466.022 159.098C469.22 164.036 470.819 169.815 470.819 176.437C470.819 183.058 469.22 188.838 466.022 193.775C462.879 198.713 458.446 202.557 452.723 205.307C447.056 208.056 440.434 209.431 432.859 209.431ZM432.859 192.008C436.619 192.008 439.845 191.391 442.539 190.156C445.288 188.866 447.392 187.07 448.851 184.769C450.31 182.413 451.04 179.635 451.04 176.437C451.04 173.238 450.31 170.489 448.851 168.188C447.392 165.831 445.288 164.036 442.539 162.801C439.845 161.511 436.619 160.865 432.859 160.865C429.1 160.865 425.845 161.511 423.095 162.801C420.402 164.036 418.326 165.831 416.867 168.188C415.408 170.489 414.679 173.238 414.679 176.437C414.679 179.635 415.408 182.413 416.867 184.769C418.326 187.07 420.402 188.866 423.095 190.156C425.845 191.391 429.1 192.008 432.859 192.008ZM479.129 144.873H498.74V208H479.129V144.873ZM528.284 144.873H547.895V208H528.284V144.873ZM490.155 167.178H536.195V184.517H490.155V167.178ZM630.235 181.15C629.561 186.761 627.597 191.699 624.343 195.964C621.144 200.228 616.88 203.539 611.549 205.896C606.274 208.253 600.214 209.431 593.369 209.431C585.962 209.431 579.481 208.056 573.926 205.307C568.37 202.557 564.05 198.713 560.964 193.775C557.877 188.838 556.334 183.058 556.334 176.437C556.334 169.815 557.877 164.036 560.964 159.098C564.05 154.16 568.37 150.316 573.926 147.567C579.481 144.817 585.962 143.442 593.369 143.442C600.214 143.442 606.274 144.621 611.549 146.978C616.88 149.334 621.144 152.645 624.343 156.909C627.597 161.118 629.561 166.056 630.235 171.723H610.539C609.978 169.31 608.94 167.262 607.425 165.579C605.966 163.839 604.058 162.521 601.701 161.623C599.345 160.669 596.567 160.192 593.369 160.192C589.777 160.192 586.691 160.837 584.11 162.128C581.529 163.419 579.537 165.298 578.134 167.767C576.731 170.18 576.03 173.07 576.03 176.437C576.03 179.803 576.731 182.693 578.134 185.106C579.537 187.519 581.529 189.399 584.11 190.745C586.691 192.036 589.777 192.681 593.369 192.681C596.567 192.681 599.345 192.26 601.701 191.419C604.058 190.521 605.966 189.202 607.425 187.463C608.94 185.723 609.978 183.619 610.539 181.15H630.235ZM648.362 196.637V180.982H691.625V196.637H648.362ZM683.292 144.873L711.573 208H690.615L667.721 153.374H673.023L650.045 208H629.171L657.368 144.873H683.292ZM727.444 144.873H790.991V208H771.38V153.374L780.218 162.212H738.386L746.634 155.815C747.027 159.182 747.279 162.437 747.392 165.579C747.56 168.721 747.644 171.723 747.644 174.585C747.644 182.721 746.887 189.371 745.372 194.533C743.913 199.639 741.556 203.399 738.301 205.812C735.103 208.168 730.923 209.347 725.76 209.347C723.46 209.347 721.159 209.094 718.858 208.589C716.614 208.084 714.566 207.355 712.714 206.401V190.24C715.183 191.194 717.456 191.671 719.532 191.671C723.011 191.671 725.508 190.128 727.023 187.042C728.538 183.956 729.295 178.85 729.295 171.723C729.295 168.188 729.127 164.204 728.79 159.771C728.51 155.338 728.061 150.372 727.444 144.873ZM821.525 153.374H841.136V208H821.525V153.374ZM798.126 144.873H864.535V162.296H798.126V144.873Z" fill="white"/>
<circle cx="902.37" cy="176" r="9.19949" fill="white"/>
<defs>
<clipPath id="clip0_278_781">
<rect width="188.17" height="207" fill="white" transform="translate(0 10.5)"/>
</clipPath>
</defs>
</svg>
