<svg width="95" height="104" viewBox="0 0 95 104" fill="none" xmlns="http://www.w3.org/2000/svg">
<g clip-path="url(#clip0_754_1674)">
<path d="M47.1701 101.83H47.1063C29.4893 101.83 15.1914 87.5319 15.1914 69.9149V28.2021H79.1808V69.8511C79.1808 87.5 64.851 101.83 47.1701 101.83Z" stroke="#E0BF8C" stroke-width="3.19149" stroke-miterlimit="10"/>
<path d="M79.1487 61.1383H52.9785V63.0532H79.1487V61.1383Z" fill="#E0BF8C"/>
<path d="M41.4895 61.1383H15.3193V63.0532H41.4895V61.1383Z" fill="#E0BF8C"/>
<path d="M48.1914 56.0319L48.1914 27.3085L46.2765 27.3085L46.2765 56.0319L48.1914 56.0319Z" fill="#E0BF8C"/>
<path d="M48.1914 101.67L48.1914 68.4788H46.2765L46.2765 101.67H48.1914Z" fill="#E0BF8C"/>
<path d="M43.9473 49.2978L65.0111 28.234H61.3728L43.9473 45.6915V49.2978Z" fill="#E0BF8C"/>
<path d="M55.4044 61.617L79.9789 37.0745V33.4362L52.1172 61.2979L55.4044 61.617Z" fill="#E0BF8C"/>
<path d="M62.0429 66.883L79.5004 49.4256L79.3727 45.9149L58.4365 66.883H62.0429Z" fill="#E0BF8C"/>
<path d="M36.7804 24.1003L57.5889 24.1003V22.2812L36.7804 22.2812V24.1003Z" fill="#E0BF8C"/>
<path d="M53.7126 10.8404L47.17 4.96808L40.6594 10.8404L32.6807 7.23404L36.5105 19.8404H57.9892L61.6594 7.23404L53.7126 10.8404ZM56.7764 17.734H37.7551L35.6168 10.8404L41.2977 13.4894L47.2977 7.96808L53.1381 13.4894L58.819 10.8404L56.7764 17.734Z" fill="#E0BF8C"/>
<path d="M47.17 3.69149C48.0513 3.69149 48.7657 2.97705 48.7657 2.09574C48.7657 1.21444 48.0513 0.5 47.17 0.5C46.2887 0.5 45.5742 1.21444 45.5742 2.09574C45.5742 2.97705 46.2887 3.69149 47.17 3.69149Z" fill="#E0BF8C"/>
<path d="M61.6914 6.24471C62.5728 6.24471 63.2872 5.53027 63.2872 4.64897C63.2872 3.76766 62.5728 3.05322 61.6914 3.05322C60.8101 3.05322 60.0957 3.76766 60.0957 4.64897C60.0957 5.53027 60.8101 6.24471 61.6914 6.24471Z" fill="#E0BF8C"/>
<path d="M32.6807 6.24471C33.562 6.24471 34.2765 5.53027 34.2765 4.64897C34.2765 3.76766 33.562 3.05322 32.6807 3.05322C31.7994 3.05322 31.085 3.76766 31.085 4.64897C31.085 5.53027 31.7994 6.24471 32.6807 6.24471Z" fill="#E0BF8C"/>
<path d="M34.2764 9.59575L37.2764 18.7553H57.2232L60.0636 9.59575L53.8083 12.4043L47.17 7.10638L41.3934 12.0532L34.2764 9.59575Z" fill="#E0BF8C"/>
<path d="M20.4257 59.8617H15.3193V62.0957H20.4257V59.8617Z" fill="#E0BF8C"/>
<path d="M73.9154 27.5638L47.6494 53.8617V57.4681L77.2345 27.883L73.9154 27.5638Z" fill="#E0BF8C"/>
<path d="M16.0527 77.2234L31.2123 62.0319L27.8932 61.7128L16.0527 73.5851V77.2234Z" fill="#E0BF8C"/>
<path d="M25.5001 91.5532L46.4682 70.5532L46.2129 67.2021L22.2129 91.2341L25.5001 91.5532Z" fill="#E0BF8C"/>
<path d="M39.1597 62.3511L18.5107 83V86.6383L41.9043 63.2128L39.1597 62.3511Z" fill="#E0BF8C"/>
<path d="M31.915 97.0106L49.3724 79.5532L49.2448 76.0745L28.3086 97.0106H31.915Z" fill="#E0BF8C"/>
<path d="M41.0104 100.426L48.255 93.1809L48.0316 89.766L37.3721 100.426H41.0104Z" fill="#E0BF8C"/>
<path d="M47.1387 54.4681C51.6332 54.4683 55.2764 58.1122 55.2764 62.6068C55.2762 67.1011 51.633 70.7442 47.1387 70.7444C42.6441 70.7444 39.0002 67.1012 39 62.6068C39 58.1121 42.644 54.4681 47.1387 54.4681ZM47.1387 58.0745C44.6358 58.0745 42.6064 60.1038 42.6064 62.6068C42.6066 65.1095 44.6359 67.138 47.1387 67.138C49.6413 67.1378 51.6697 65.1094 51.6699 62.6068C51.6699 60.104 49.6414 58.0747 47.1387 58.0745Z" fill="#E0BF8C"/>
<path d="M47.138 64.8724C48.3895 64.8724 49.404 63.8579 49.404 62.6064C49.404 61.355 48.3895 60.3405 47.138 60.3405C45.8866 60.3405 44.8721 61.355 44.8721 62.6064C44.8721 63.8579 45.8866 64.8724 47.138 64.8724Z" fill="#E0BF8C"/>
<path d="M47.2021 29.1596V56.6703C44.4368 56.6852 42.1337 58.6537 41.6035 61.2661H16.0527V29.1596H47.2021ZM21.1592 33.3725V39.4682H22.1807C22.5955 39.1491 22.9465 38.7023 23.2656 38.1918C23.9997 36.9472 24.3828 35.6062 24.3828 34.2338H28.2764V56.0961L26.2334 56.6069V57.1166H35.9033V56.6069L33.8613 56.0961V34.2338H37.7549C37.7549 35.6381 38.1058 36.9791 38.8398 38.1918C39.159 38.7024 39.5422 39.1172 39.957 39.4682H40.9785V33.3725H21.1592Z" fill="#E0BF8C"/>
<path d="M79.1807 62.1915L78.8613 74.4151L76.7871 82.0108L72.415 89.5108L65.9355 95.7657L55.8828 100.394L47.1699 101.83V69.4297C50.2241 69.2962 52.6592 66.7786 52.6592 63.6915C52.6592 63.1724 52.589 62.6698 52.46 62.1915H79.1807ZM67.5 68.1592C66.766 68.1592 66.1591 68.4152 65.6484 68.9258C65.138 69.4045 64.7546 70.1063 64.5312 70.9678L63.542 74.6387C63.0951 76.4256 62.1375 77.3194 60.7334 77.3194H59.3291V69.2764L61.0205 68.8614V68.4464H52.9785V68.8614L54.6699 69.2764V87.3087L52.9785 87.7237V88.1387H61.0205V87.7237L59.3291 87.3087V77.9893H61.8828L64.5635 85.7442C64.8188 86.5102 65.2338 87.1174 65.7764 87.5323C66.3189 87.9471 67.085 88.1387 68.0742 88.1387H71.5205V87.7549L70.1172 87.3409L67.5635 79.8721C67.0209 78.2766 65.6168 77.4787 63.3193 77.4786H62.6172C62.8724 77.319 63.1279 77.1277 63.3193 76.9044C63.766 76.4257 64.1484 75.6596 64.4355 74.6387L65.4248 70.9678C65.5524 70.4255 65.7764 69.979 66.0635 69.628C66.3507 69.277 66.6379 69.0532 66.957 68.9893V72.9464L67.3086 73.0421C67.5957 73.074 67.8512 73.1065 68.1064 73.1065C68.7445 73.1064 69.2554 72.8833 69.7021 72.4366C70.117 71.9898 70.3398 71.415 70.3398 70.713C70.3398 69.9789 70.0526 69.3723 69.542 68.8936C68.9995 68.415 68.3296 68.1593 67.5 68.1592Z" fill="#E0BF8C"/>
</g>
<defs>
<clipPath id="clip0_754_1674">
<rect width="94.0851" height="103.5" fill="white" transform="translate(0 0.5)"/>
</clipPath>
</defs>
</svg>
