<svg width="123" height="29" viewBox="0 0 123 29" fill="none" xmlns="http://www.w3.org/2000/svg">
<g clip-path="url(#clip0_1817_4815)">
<path d="M10.514 25.2456H10.4948C5.18557 25.2456 0.876648 20.9367 0.876648 15.6275V3.05664H20.161V15.6083C20.161 20.9271 15.8424 25.2456 10.514 25.2456Z" stroke="#E0BF8C" stroke-width="0.961812" stroke-miterlimit="10"/>
<path d="M20.1514 12.9827H12.2646V13.5598H20.1514V12.9827Z" fill="#E0BF8C"/>
<path d="M8.80208 12.9827H0.915222V13.5598H8.80208V12.9827Z" fill="#E0BF8C"/>
<path d="M10.8218 11.4439L10.8218 2.7876L10.2448 2.7876L10.2448 11.4439L10.8218 11.4439Z" fill="#E0BF8C"/>
<path d="M10.8218 25.1979L10.8218 15.1951L10.2448 15.1951L10.2448 25.1979H10.8218Z" fill="#E0BF8C"/>
<path d="M9.54266 9.41436L15.8906 3.06641H14.7942L9.54266 8.32752V9.41436Z" fill="#E0BF8C"/>
<path d="M12.9956 13.1273L20.4016 5.73099V4.63452L12.0049 13.0311L12.9956 13.1273Z" fill="#E0BF8C"/>
<path d="M14.9961 14.7141L20.2572 9.45301L20.2187 8.39502L13.9092 14.7141H14.9961Z" fill="#E0BF8C"/>
<path d="M2.45412 12.5984H0.915222V13.2717H2.45412V12.5984Z" fill="#E0BF8C"/>
<path d="M18.5742 2.86475L10.6584 10.7901V11.8769L19.5744 2.96093L18.5742 2.86475Z" fill="#E0BF8C"/>
<path d="M1.13641 17.8304L5.70502 13.2522L4.70474 13.156L1.13641 16.7339V17.8304Z" fill="#E0BF8C"/>
<path d="M3.98334 22.1492L10.3024 15.8204L10.2255 14.8105L2.99268 22.053L3.98334 22.1492Z" fill="#E0BF8C"/>
<path d="M8.09999 13.3484L1.87708 19.5713V20.6678L8.92715 13.6081L8.09999 13.3484Z" fill="#E0BF8C"/>
<path d="M5.91662 23.7936L11.1777 18.5325L11.1393 17.4841L4.82977 23.7936H5.91662Z" fill="#E0BF8C"/>
<path d="M8.65787 24.8226L10.8412 22.6392L10.7739 21.6101L7.5614 24.8226H8.65787Z" fill="#E0BF8C"/>
<path d="M10.504 10.9727C11.8584 10.9727 12.9568 12.0705 12.9571 13.4248C12.9571 14.7793 11.8585 15.8779 10.504 15.8779C9.14964 15.8777 8.05182 14.7792 8.05182 13.4248C8.05207 12.0706 9.1498 10.9729 10.504 10.9727ZM10.5049 12.0596C9.75068 12.0596 9.13879 12.6706 9.13873 13.4248C9.13873 14.1791 9.75065 14.791 10.5049 14.791C11.259 14.7908 11.8702 14.179 11.8702 13.4248C11.8701 12.6707 11.259 12.0598 10.5049 12.0596Z" fill="#E0BF8C"/>
<path d="M10.5045 14.1084C10.8817 14.1084 11.1874 13.8027 11.1874 13.4256C11.1874 13.0484 10.8817 12.7427 10.5045 12.7427C10.1274 12.7427 9.82166 13.0484 9.82166 13.4256C9.82166 13.8027 10.1274 14.1084 10.5045 14.1084Z" fill="#E0BF8C"/>
<path d="M10.5241 3.34546V11.6365C9.69073 11.6409 8.99745 12.234 8.83759 13.0212H1.13641V3.34546H10.5241ZM2.67548 4.61499V6.4519H2.98309C3.10809 6.35573 3.21409 6.22099 3.31024 6.06714C3.53136 5.69211 3.64715 5.28824 3.64716 4.87476H4.82001V11.4636L4.20477 11.6169V11.7712H7.11884V11.6169L6.5036 11.4636V4.87476H7.67645C7.67646 5.29785 7.78249 5.70172 8.0036 6.06714C8.09978 6.22102 8.21549 6.34611 8.34052 6.4519H8.64813V4.61499H2.67548Z" fill="#E0BF8C"/>
<path d="M20.1616 13.3003L20.0649 16.9839L19.4399 19.2729L18.1226 21.5337L16.1694 23.4185L13.1401 24.813L10.5142 25.2456V15.48C11.4345 15.4396 12.1684 14.6827 12.1685 13.7524C12.1685 13.5959 12.1459 13.4445 12.1069 13.3003H20.1616ZM16.6411 15.0991C16.42 15.0991 16.2373 15.1759 16.0835 15.3296C15.9297 15.4738 15.8139 15.6853 15.7466 15.9448L15.4487 17.0513C15.3141 17.5898 15.0252 17.8588 14.6021 17.8589H14.1782V15.4351L14.688 15.3101V15.1851H12.2651V15.3101L12.7749 15.4351V20.8696L12.2651 20.9946V21.1196H14.688V20.9946L14.1782 20.8696V18.061H14.9478L15.7563 20.3979C15.8333 20.6288 15.9581 20.812 16.1216 20.937C16.2851 21.062 16.5159 21.1196 16.814 21.1196H17.853V21.0044L17.4292 20.8794L16.6606 18.6284C16.4972 18.1476 16.0736 17.9078 15.3813 17.9077H15.1694C15.2464 17.8596 15.3236 17.8012 15.3813 17.7339C15.5159 17.5896 15.6308 17.3588 15.7173 17.0513L16.0161 15.9448C16.0546 15.7815 16.122 15.6472 16.2085 15.5415C16.2949 15.4359 16.381 15.3685 16.4771 15.3491V16.5415L16.5835 16.5708C16.6699 16.5804 16.7469 16.5894 16.8237 16.5894C17.0161 16.5893 17.1696 16.5218 17.3042 16.3872C17.4291 16.2526 17.4965 16.08 17.4966 15.8687C17.4966 15.6474 17.4102 15.4641 17.2563 15.3198C17.0929 15.1757 16.891 15.0992 16.6411 15.0991Z" fill="#E0BF8C"/>
</g>
<path d="M32.2056 4.78583H35.5137V14H32.2056V4.78583ZM28.2587 3.35188H39.4606V6.29076H28.2587V3.35188ZM46.7595 3.35188C47.6871 3.35188 48.4821 3.50805 49.1447 3.8204C49.8167 4.13274 50.3278 4.57287 50.678 5.14077C51.0282 5.6992 51.2033 6.36175 51.2033 7.12841C51.2033 7.88561 51.0282 8.54816 50.678 9.11606C50.3278 9.68396 49.8167 10.1241 49.1447 10.4364C48.4821 10.7488 47.6871 10.9049 46.7595 10.9049H42.2021V8.29261H46.5466C46.963 8.29261 47.2848 8.18849 47.512 7.98026C47.7486 7.77203 47.8669 7.48808 47.8669 7.12841C47.8669 6.74981 47.7486 6.46113 47.512 6.26237C47.2848 6.0636 46.963 5.96422 46.5466 5.96422H42.4861L43.9768 4.45929V14H40.6688V3.35188H46.7595ZM53.506 12.0833V9.44261H60.8035V12.0833H53.506ZM59.3979 3.35188L64.1683 14H60.6331L56.7714 4.78583H57.6658L53.7899 14H50.269L55.0251 3.35188H59.3979ZM65.0707 3.35188H68.3787V14H65.0707V3.35188ZM73.3621 3.35188H76.6701V14H73.3621V3.35188ZM66.9306 7.11422H74.6966V10.0389H66.9306V7.11422ZM90.559 9.471C90.4454 10.4175 90.1141 11.2504 89.5652 11.9698C89.0257 12.6891 88.3063 13.2475 87.4071 13.6451C86.5174 14.0426 85.4952 14.2414 84.3405 14.2414C83.0911 14.2414 81.9979 14.0095 81.0609 13.5457C80.1238 13.0819 79.395 12.4335 78.8745 11.6006C78.3539 10.7677 78.0936 9.79281 78.0936 8.67594C78.0936 7.55907 78.3539 6.58418 78.8745 5.75126C79.395 4.91834 80.1238 4.26999 81.0609 3.8062C81.9979 3.34242 83.0911 3.11053 84.3405 3.11053C85.4952 3.11053 86.5174 3.30929 87.4071 3.70682C88.3063 4.10435 89.0257 4.66278 89.5652 5.38212C90.1141 6.092 90.4454 6.92492 90.559 7.88088H87.2368C87.1421 7.47389 86.967 7.12841 86.7115 6.84447C86.4654 6.55105 86.1436 6.32862 85.746 6.17718C85.3485 6.01628 84.88 5.93583 84.3405 5.93583C83.7347 5.93583 83.2142 6.04467 82.7788 6.26237C82.3434 6.48006 82.0074 6.79714 81.7707 7.2136C81.5341 7.62059 81.4158 8.10804 81.4158 8.67594C81.4158 9.24384 81.5341 9.73129 81.7707 10.1383C82.0074 10.5453 82.3434 10.8624 82.7788 11.0895C83.2142 11.3072 83.7347 11.4161 84.3405 11.4161C84.88 11.4161 85.3485 11.3451 85.746 11.2031C86.1436 11.0517 86.4654 10.8292 86.7115 10.5358C86.967 10.2424 87.1421 9.88746 87.2368 9.471H90.559ZM97.8619 14.2414C96.5842 14.2414 95.4626 14.0095 94.4971 13.5457C93.5412 13.0819 92.7934 12.4335 92.2539 11.6006C91.7239 10.7677 91.4589 9.79281 91.4589 8.67594C91.4589 7.55907 91.7239 6.58418 92.2539 5.75126C92.7934 4.91834 93.5412 4.26999 94.4971 3.8062C95.4626 3.34242 96.5842 3.11053 97.8619 3.11053C99.1397 3.11053 100.257 3.34242 101.213 3.8062C102.178 4.26999 102.926 4.91834 103.456 5.75126C103.995 6.58418 104.265 7.55907 104.265 8.67594C104.265 9.79281 103.995 10.7677 103.456 11.6006C102.926 12.4335 102.178 13.0819 101.213 13.5457C100.257 14.0095 99.1397 14.2414 97.8619 14.2414ZM97.8619 11.3025C98.4961 11.3025 99.0403 11.1984 99.4946 10.9901C99.9584 10.7724 100.313 10.4696 100.559 10.0815C100.806 9.68396 100.929 9.21545 100.929 8.67594C100.929 8.13644 100.806 7.67265 100.559 7.28459C100.313 6.88706 99.9584 6.58418 99.4946 6.37595C99.0403 6.15825 98.4961 6.04941 97.8619 6.04941C97.2278 6.04941 96.6788 6.15825 96.215 6.37595C95.7607 6.58418 95.4105 6.88706 95.1644 7.28459C94.9183 7.67265 94.7953 8.13644 94.7953 8.67594C94.7953 9.21545 94.9183 9.68396 95.1644 10.0815C95.4105 10.4696 95.7607 10.7724 96.215 10.9901C96.6788 11.1984 97.2278 11.3025 97.8619 11.3025ZM121.653 3.35188V14H118.501V4.57287L119.154 4.64385L115.307 14H112.013L108.151 4.67225L108.804 4.58706V14H105.667V3.35188H110.764L114.27 12.2537H113.064L116.542 3.35188H121.653Z" fill="white"/>
<circle cx="37.6759" cy="22.0574" r="1.12352" fill="white"/>
<path d="M42.643 25.5571V17.8475H45.0175V23.676L44.4007 23.1723L48.5023 17.8475H51.0104L44.8119 25.5571H42.643ZM46.3333 21.949L48.0911 20.5305L51.1235 25.5571H48.4097L46.3333 21.949ZM55.4931 25.7319C54.5679 25.7319 53.7559 25.564 53.0569 25.2282C52.3647 24.8924 51.8233 24.423 51.4327 23.8199C51.0489 23.2168 50.857 22.511 50.857 21.7023C50.857 20.8937 51.0489 20.1878 51.4327 19.5848C51.8233 18.9817 52.3647 18.5123 53.0569 18.1765C53.7559 17.8407 54.5679 17.6728 55.4931 17.6728C56.4182 17.6728 57.2269 17.8407 57.919 18.1765C58.618 18.5123 59.1594 18.9817 59.5432 19.5848C59.9338 20.1878 60.1291 20.8937 60.1291 21.7023C60.1291 22.511 59.9338 23.2168 59.5432 23.8199C59.1594 24.423 58.618 24.8924 57.919 25.2282C57.2269 25.564 56.4182 25.7319 55.4931 25.7319ZM55.4931 23.604C55.9522 23.604 56.3463 23.5286 56.6752 23.3779C57.011 23.2203 57.268 23.001 57.4462 22.72C57.6244 22.4322 57.7134 22.093 57.7134 21.7023C57.7134 21.3117 57.6244 20.9759 57.4462 20.6949C57.268 20.4071 57.011 20.1878 56.6752 20.0371C56.3463 19.8794 55.9522 19.8006 55.4931 19.8006C55.0339 19.8006 54.6365 19.8794 54.3007 20.0371C53.9717 20.1878 53.7182 20.4071 53.54 20.6949C53.3618 20.9759 53.2727 21.3117 53.2727 21.7023C53.2727 22.093 53.3618 22.4322 53.54 22.72C53.7182 23.001 53.9717 23.2203 54.3007 23.3779C54.6365 23.5286 55.0339 23.604 55.4931 23.604ZM61.144 17.8475H63.5391V25.5571H61.144V17.8475ZM67.1472 17.8475H69.5423V25.5571H67.1472V17.8475ZM62.4906 20.5716H68.1135V22.6892H62.4906V20.5716ZM79.5983 22.278C79.5161 22.9633 79.2762 23.5663 78.8788 24.0872C78.4882 24.608 77.9673 25.0123 77.3163 25.3001C76.6721 25.588 75.932 25.7319 75.0959 25.7319C74.1913 25.7319 73.3998 25.564 72.7214 25.2282C72.0429 24.8924 71.5153 24.423 71.1383 23.8199C70.7614 23.2168 70.573 22.511 70.573 21.7023C70.573 20.8937 70.7614 20.1878 71.1383 19.5848C71.5153 18.9817 72.0429 18.5123 72.7214 18.1765C73.3998 17.8407 74.1913 17.6728 75.0959 17.6728C75.932 17.6728 76.6721 17.8167 77.3163 18.1045C77.9673 18.3923 78.4882 18.7967 78.8788 19.3175C79.2762 19.8315 79.5161 20.4345 79.5983 21.1267H77.1929C77.1244 20.832 76.9976 20.5819 76.8126 20.3763C76.6344 20.1638 76.4014 20.0028 76.1136 19.8931C75.8258 19.7766 75.4866 19.7184 75.0959 19.7184C74.6573 19.7184 74.2804 19.7972 73.9652 19.9548C73.65 20.1124 73.4067 20.342 73.2354 20.6435C73.064 20.9382 72.9784 21.2912 72.9784 21.7023C72.9784 22.1135 73.064 22.4664 73.2354 22.7611C73.4067 23.0558 73.65 23.2854 73.9652 23.4498C74.2804 23.6075 74.6573 23.6863 75.0959 23.6863C75.4866 23.6863 75.8258 23.6349 76.1136 23.5321C76.4014 23.4224 76.6344 23.2614 76.8126 23.0489C76.9976 22.8365 77.1244 22.5795 77.1929 22.278H79.5983ZM81.8122 24.1694V22.2574H87.0958V24.1694H81.8122ZM86.0782 17.8475L89.5321 25.5571H86.9725L84.1765 18.8858H84.8241L82.0178 25.5571H79.4685L82.9121 17.8475H86.0782ZM91.4704 17.8475H99.2314V25.5571H96.8363V18.8858L97.9156 19.9651H92.8067L93.8141 19.1839C93.8621 19.595 93.8929 19.9925 93.9066 20.3763C93.9272 20.76 93.9375 21.1267 93.9375 21.4762C93.9375 22.4699 93.8449 23.2819 93.6599 23.9124C93.4817 24.536 93.1939 24.9952 92.7964 25.2899C92.4058 25.5777 91.8953 25.7216 91.2648 25.7216C90.9838 25.7216 90.7029 25.6908 90.4219 25.6291C90.1478 25.5674 89.8976 25.4783 89.6715 25.3618V23.3882C89.973 23.5047 90.2506 23.5629 90.5041 23.5629C90.929 23.5629 91.234 23.3745 91.419 22.9975C91.604 22.6206 91.6965 21.997 91.6965 21.1267C91.6965 20.6949 91.676 20.2084 91.6349 19.667C91.6006 19.1256 91.5458 18.5191 91.4704 17.8475ZM102.96 18.8858H105.356V25.5571H102.96V18.8858ZM100.103 17.8475H108.213V19.9754H100.103V17.8475Z" fill="white"/>
<circle cx="113.274" cy="22.0574" r="1.12352" fill="white"/>
<defs>
<clipPath id="clip0_1817_4815">
<rect width="20.9748" height="23.4424" fill="white" transform="translate(0 2.55762)"/>
</clipPath>
</defs>
</svg>
