<svg width="775" height="543" viewBox="0 0 775 543" fill="none" xmlns="http://www.w3.org/2000/svg">
<path d="M387.9 317.5H387.7C332.5 317.5 287.7 272.7 287.7 217.5V86.8H488.2V217.3C488.2 272.6 443.3 317.5 387.9 317.5Z" stroke="#E0BF8C" stroke-width="10" stroke-miterlimit="10"/>
<path d="M488.1 190H406.1V196H488.1V190Z" fill="#E0BF8C"/>
<path d="M370.1 190H288.1V196H370.1V190Z" fill="#E0BF8C"/>
<path d="M391.1 174L391.1 84L385.1 84L385.1 174H391.1Z" fill="#E0BF8C"/>
<path d="M391.1 317L391.1 213L385.1 213L385.1 317H391.1Z" fill="#E0BF8C"/>
<path d="M377.8 152.9L443.8 86.9H432.4L377.8 141.6V152.9Z" fill="#E0BF8C"/>
<path d="M413.7 191.5L490.7 114.6V103.2L403.4 190.5L413.7 191.5Z" fill="#E0BF8C"/>
<path d="M434.5 208L489.2 153.3L488.8 142.3L423.2 208H434.5Z" fill="#E0BF8C"/>
<path d="M355.344 73.9478L420.544 73.9478V68.2477L355.344 68.2477V73.9478Z" fill="#E0BF8C"/>
<path d="M408.4 32.4L387.9 14L367.5 32.4L342.5 21.1L354.5 60.6H421.8L433.3 21.1L408.4 32.4ZM418 54H358.4L351.7 32.4L369.5 40.7L388.3 23.4L406.6 40.7L424.4 32.4L418 54Z" fill="#E0BF8C"/>
<path d="M387.9 10C390.661 10 392.9 7.76142 392.9 5C392.9 2.23858 390.661 0 387.9 0C385.138 0 382.9 2.23858 382.9 5C382.9 7.76142 385.138 10 387.9 10Z" fill="#E0BF8C"/>
<path d="M433.4 18C436.161 18 438.4 15.7614 438.4 13C438.4 10.2386 436.161 8 433.4 8C430.638 8 428.4 10.2386 428.4 13C428.4 15.7614 430.638 18 433.4 18Z" fill="#E0BF8C"/>
<path d="M342.5 18C345.261 18 347.5 15.7614 347.5 13C347.5 10.2386 345.261 8 342.5 8C339.739 8 337.5 10.2386 337.5 13C337.5 15.7614 339.739 18 342.5 18Z" fill="#E0BF8C"/>
<path d="M347.5 28.5L356.9 57.2H419.4L428.3 28.5L408.7 37.2999L387.9 20.7L369.8 36.2L347.5 28.5Z" fill="#E0BF8C"/>
<path d="M304.1 186H288.1V193H304.1V186Z" fill="#E0BF8C"/>
<path d="M471.7 84.8L389.4 167.2V178.5L482.1 85.8L471.7 84.8Z" fill="#E0BF8C"/>
<path d="M290.4 240.4L337.9 192.8L327.5 191.8L290.4 229V240.4Z" fill="#E0BF8C"/>
<path d="M320 285.3L385.7 219.5L384.9 209L309.7 284.3L320 285.3Z" fill="#E0BF8C"/>
<path d="M362.8 193.8L298.1 258.5V269.9L371.4 196.5L362.8 193.8Z" fill="#E0BF8C"/>
<path d="M340.1 302.4L394.8 247.7L394.4 236.8L328.8 302.4H340.1Z" fill="#E0BF8C"/>
<path d="M368.6 313.1L391.3 290.4L390.6 279.7L357.2 313.1H368.6Z" fill="#E0BF8C"/>
<path fill-rule="evenodd" clip-rule="evenodd" d="M413.3 194.6C413.3 208.683 401.884 220.1 387.8 220.1C373.717 220.1 362.3 208.683 362.3 194.6C362.3 180.517 373.717 169.1 387.8 169.1C401.884 169.1 413.3 180.517 413.3 194.6ZM402 194.6C402 202.442 395.643 208.8 387.8 208.8C379.958 208.8 373.6 202.442 373.6 194.6C373.6 186.758 379.958 180.4 387.8 180.4C395.643 180.4 402 186.758 402 194.6Z" fill="#E0BF8C"/>
<path d="M387.8 201.7C391.721 201.7 394.9 198.521 394.9 194.6C394.9 190.679 391.721 187.5 387.8 187.5C383.879 187.5 380.7 190.679 380.7 194.6C380.7 198.521 383.879 201.7 387.8 201.7Z" fill="#E0BF8C"/>
<path fill-rule="evenodd" clip-rule="evenodd" d="M290.4 190.4V89.8H388V176C379.336 176.047 372.121 182.215 370.46 190.4H290.4ZM365.3 122.1H368.5V103H306.4V122.1H309.6C310.9 121.1 312 119.7 313 118.1C315.3 114.2 316.5 110 316.5 105.7H328.7V174.2L322.3 175.8V177.4H352.6V175.8L346.2 174.2V105.7H358.4C358.4 110.1 359.5 114.3 361.8 118.1C362.8 119.7 364 121 365.3 122.1Z" fill="#E0BF8C"/>
<path fill-rule="evenodd" clip-rule="evenodd" d="M387.9 215.983C397.47 215.564 405.1 207.673 405.1 198C405.1 196.374 404.884 194.798 404.48 193.3H488.2L487.2 231.6L480.7 255.4L467 278.9L446.7 298.5L415.2 313L387.9 317.5V215.983ZM453.4 274.6H464H464.2V273.4L459.8 272.1L451.8 248.7C450.1 243.7 445.7 241.2 438.5 241.2H436.3C437.1 240.7 437.9 240.1 438.5 239.4C439.9 237.9 441.1 235.5 442 232.3L445.1 220.8C445.5 219.1 446.2 217.7 447.1 216.6C448 215.5 448.9 214.8 449.9 214.6V227L451 227.3C451.091 227.31 451.181 227.32 451.27 227.33C452.062 227.419 452.781 227.5 453.5 227.5C455.5 227.5 457.1 226.8 458.5 225.4C459.8 224 460.5 222.2 460.5 220C460.5 217.7 459.6 215.8 458 214.3C456.3 212.8 454.2 212 451.6 212C449.3 212 447.4 212.8 445.8 214.4C444.2 215.9 443 218.1 442.3 220.8L439.2 232.3C437.8 237.9 434.8 240.7 430.4 240.7H426V215.5L431.3 214.2V212.9H406.1V214.2L411.4 215.5V272L406.1 273.3V274.6H431.3V273.3L426 272V242.8H434L442.4 267.1C443.2 269.5 444.5 271.4 446.2 272.7C447.9 274 450.3 274.6 453.4 274.6Z" fill="#E0BF8C"/>
<path d="M34.6425 383.854H61.7287V459.3H34.6425V383.854ZM2.325 372.112H94.0462V396.176H2.325V372.112ZM153.811 372.112C161.406 372.112 167.916 373.391 173.341 375.949C178.843 378.506 183.028 382.11 185.896 386.76C188.763 391.332 190.197 396.757 190.197 403.035C190.197 409.235 188.763 414.66 185.896 419.31C183.028 423.96 178.843 427.564 173.341 430.121C167.916 432.679 161.406 433.957 153.811 433.957H116.494V412.567H152.067C155.477 412.567 158.112 411.715 159.972 410.01C161.909 408.305 162.878 405.98 162.878 403.035C162.878 399.935 161.909 397.571 159.972 395.944C158.112 394.316 155.477 393.502 152.067 393.502H118.819L131.026 381.18V459.3H103.939V372.112H153.811ZM209.051 443.606V421.984H268.804V443.606H209.051ZM257.295 372.112L296.355 459.3H267.409L235.789 383.854H243.112L211.376 459.3H182.546L221.49 372.112H257.295ZM303.744 372.112H330.83V459.3H303.744V372.112ZM371.634 372.112H398.72V459.3H371.634V372.112ZM318.973 402.919H382.561V426.866H318.973V402.919ZM512.444 422.216C511.514 429.966 508.801 436.786 504.306 442.676C499.889 448.566 493.999 453.139 486.636 456.394C479.351 459.649 470.981 461.276 461.526 461.276C451.296 461.276 442.345 459.377 434.672 455.58C427 451.782 421.032 446.474 416.77 439.654C412.507 432.834 410.376 424.851 410.376 415.706C410.376 406.561 412.507 398.579 416.77 391.759C421.032 384.939 427 379.63 434.672 375.832C442.345 372.035 451.296 370.136 461.526 370.136C470.981 370.136 479.351 371.764 486.636 375.019C493.999 378.274 499.889 382.846 504.306 388.736C508.801 394.549 511.514 401.369 512.444 409.196H485.241C484.466 405.864 483.032 403.035 480.94 400.71C478.925 398.307 476.29 396.486 473.035 395.246C469.78 393.929 465.944 393.27 461.526 393.27C456.566 393.27 452.304 394.161 448.739 395.944C445.174 397.726 442.422 400.322 440.485 403.732C438.547 407.065 437.579 411.056 437.579 415.706C437.579 420.356 438.547 424.347 440.485 427.68C442.422 431.012 445.174 433.609 448.739 435.469C452.304 437.251 456.566 438.142 461.526 438.142C465.944 438.142 469.78 437.561 473.035 436.399C476.29 435.159 478.925 433.337 480.94 430.935C483.032 428.532 484.466 425.626 485.241 422.216H512.444ZM572.241 461.276C561.778 461.276 552.594 459.377 544.689 455.58C536.862 451.782 530.739 446.474 526.322 439.654C521.982 432.834 519.812 424.851 519.812 415.706C519.812 406.561 521.982 398.579 526.322 391.759C530.739 384.939 536.862 379.63 544.689 375.832C552.594 372.035 561.778 370.136 572.241 370.136C582.703 370.136 591.848 372.035 599.676 375.832C607.581 379.63 613.703 384.939 618.043 391.759C622.461 398.579 624.669 406.561 624.669 415.706C624.669 424.851 622.461 432.834 618.043 439.654C613.703 446.474 607.581 451.782 599.676 455.58C591.848 459.377 582.703 461.276 572.241 461.276ZM572.241 437.212C577.433 437.212 581.889 436.36 585.609 434.655C589.407 432.872 592.313 430.392 594.328 427.215C596.343 423.96 597.351 420.124 597.351 415.706C597.351 411.289 596.343 407.491 594.328 404.314C592.313 401.059 589.407 398.579 585.609 396.874C581.889 395.091 577.433 394.2 572.241 394.2C567.048 394.2 562.553 395.091 558.756 396.874C555.036 398.579 552.168 401.059 550.153 404.314C548.138 407.491 547.131 411.289 547.131 415.706C547.131 420.124 548.138 423.96 550.153 427.215C552.168 430.392 555.036 432.872 558.756 434.655C562.553 436.36 567.048 437.212 572.241 437.212ZM767.044 372.112V459.3H741.236V382.11L746.584 382.691L715.08 459.3H688.11L656.49 382.924L661.838 382.226V459.3H636.146V372.112H677.88L706.594 445.001H696.713L725.194 372.112H767.044Z" fill="white"/>
<circle cx="178" cy="508.3" r="6" fill="white"/>
<path d="M213.568 529.3V488.128H226.249V519.254L222.955 516.564L244.859 488.128H258.253L225.151 529.3H213.568ZM233.276 510.032L242.663 502.456L258.857 529.3H244.365L233.276 510.032ZM282.192 530.233C277.252 530.233 272.915 529.337 269.182 527.543C265.486 525.75 262.594 523.243 260.508 520.023C258.459 516.802 257.434 513.033 257.434 508.714C257.434 504.396 258.459 500.626 260.508 497.406C262.594 494.185 265.486 491.678 269.182 489.885C272.915 488.092 277.252 487.195 282.192 487.195C287.133 487.195 291.451 488.092 295.148 489.885C298.881 491.678 301.772 494.185 303.821 497.406C305.907 500.626 306.95 504.396 306.95 508.714C306.95 513.033 305.907 516.802 303.821 520.023C301.772 523.243 298.881 525.75 295.148 527.543C291.451 529.337 287.133 530.233 282.192 530.233ZM282.192 518.87C284.644 518.87 286.749 518.467 288.505 517.662C290.299 516.82 291.671 515.649 292.623 514.149C293.574 512.612 294.05 510.8 294.05 508.714C294.05 506.628 293.574 504.835 292.623 503.334C291.671 501.797 290.299 500.626 288.505 499.821C286.749 498.979 284.644 498.558 282.192 498.558C279.74 498.558 277.618 498.979 275.824 499.821C274.068 500.626 272.714 501.797 271.762 503.334C270.811 504.835 270.335 506.628 270.335 508.714C270.335 510.8 270.811 512.612 271.762 514.149C272.714 515.649 274.068 516.82 275.824 517.662C277.618 518.467 279.74 518.87 282.192 518.87ZM312.37 488.128H325.161V529.3H312.37V488.128ZM344.429 488.128H357.22V529.3H344.429V488.128ZM319.561 502.676H349.589V513.984H319.561V502.676ZM410.923 511.788C410.483 515.448 409.203 518.668 407.08 521.45C404.994 524.231 402.212 526.391 398.736 527.928C395.296 529.465 391.343 530.233 386.878 530.233C382.047 530.233 377.82 529.337 374.197 527.543C370.574 525.75 367.756 523.243 365.743 520.023C363.73 516.802 362.724 513.033 362.724 508.714C362.724 504.396 363.73 500.626 365.743 497.406C367.756 494.185 370.574 491.678 374.197 489.885C377.82 488.092 382.047 487.195 386.878 487.195C391.343 487.195 395.296 487.963 398.736 489.501C402.212 491.038 404.994 493.197 407.08 495.978C409.203 498.723 410.483 501.944 410.923 505.64H398.077C397.711 504.066 397.034 502.73 396.046 501.632C395.094 500.498 393.85 499.638 392.313 499.052C390.776 498.43 388.964 498.119 386.878 498.119C384.536 498.119 382.523 498.54 380.84 499.382C379.156 500.223 377.857 501.45 376.942 503.06C376.027 504.633 375.57 506.518 375.57 508.714C375.57 510.91 376.027 512.795 376.942 514.368C377.857 515.942 379.156 517.168 380.84 518.046C382.523 518.888 384.536 519.309 386.878 519.309C388.964 519.309 390.776 519.034 392.313 518.486C393.85 517.9 395.094 517.04 396.046 515.905C397.034 514.771 397.711 513.398 398.077 511.788H410.923ZM422.745 521.889V511.678H450.962V521.889H422.745ZM445.527 488.128L463.972 529.3H450.303L435.371 493.673H438.83L423.843 529.3H410.229L428.619 488.128H445.527ZM474.323 488.128H515.77V529.3H502.979V493.673L508.743 499.437H481.46L486.84 495.265C487.096 497.46 487.261 499.583 487.334 501.632C487.443 503.682 487.498 505.64 487.498 507.506C487.498 512.813 487.004 517.15 486.016 520.517C485.065 523.847 483.528 526.299 481.405 527.873C479.319 529.41 476.592 530.178 473.225 530.178C471.725 530.178 470.225 530.014 468.724 529.684C467.26 529.355 465.924 528.879 464.717 528.257V517.717C466.327 518.339 467.809 518.65 469.163 518.65C471.432 518.65 473.061 517.644 474.049 515.631C475.037 513.618 475.531 510.288 475.531 505.64C475.531 503.334 475.421 500.736 475.202 497.845C475.019 494.953 474.726 491.715 474.323 488.128ZM535.684 493.673H548.475V529.3H535.684V493.673ZM520.423 488.128H563.736V499.492H520.423V488.128Z" fill="white"/>
<circle cx="597" cy="508.3" r="6" fill="white"/>
</svg>
