<svg xmlns="http://www.w3.org/2000/svg" version="1.1" xmlns:xlink="http://www.w3.org/1999/xlink" width="1000" height="1000"><style>
    #light-icon {
      display: inline;
    }
    #dark-icon {
      display: none;
    }

    @media (prefers-color-scheme: dark) {
      #light-icon {
        display: none;
      }
      #dark-icon {
        display: inline;
      }
    }
  </style><g id="light-icon"><svg xmlns="http://www.w3.org/2000/svg" version="1.1" xmlns:xlink="http://www.w3.org/1999/xlink" width="1000" height="1000"><g><g transform="matrix(3.90625,0,0,3.90625,0,0)"><svg xmlns="http://www.w3.org/2000/svg" version="1.1" xmlns:xlink="http://www.w3.org/1999/xlink" width="256" height="256"><svg width="256" height="256" viewBox="0 0 256 256" fill="none" xmlns="http://www.w3.org/2000/svg">
<rect width="256" height="256" fill="#000E54"></rect>
<g clip-path="url(#clip0_1817_4609)">
<path d="M128.317 227.655H128.148C81.5479 227.655 43.7275 189.834 43.7275 143.234V32.8967H212.99V143.065C212.99 189.75 175.086 227.655 128.317 227.655Z" stroke="#E0BF8C" stroke-width="8.44204" stroke-miterlimit="10"></path>
<path d="M212.906 120.018H143.681V125.084H212.906V120.018Z" fill="#E0BF8C"></path>
<path d="M113.29 120.018H44.0652V125.084H113.29V120.018Z" fill="#E0BF8C"></path>
<path d="M131.018 106.511L131.018 30.5325L125.953 30.5325L125.953 106.511L131.018 106.511Z" fill="#E0BF8C"></path>
<path d="M131.018 227.232L131.018 139.435L125.953 139.435L125.953 227.232H131.018Z" fill="#E0BF8C"></path>
<path d="M119.79 88.6982L175.508 32.9807H165.884L119.79 79.1587V88.6982Z" fill="#E0BF8C"></path>
<path d="M150.097 121.285L215.101 56.3654V46.7415L141.402 120.44L150.097 121.285Z" fill="#E0BF8C"></path>
<path d="M167.657 135.214L213.835 89.036L213.497 79.7498L158.117 135.214H167.657Z" fill="#E0BF8C"></path>
<path d="M57.5725 116.642H44.0652V122.551H57.5725V116.642Z" fill="#E0BF8C"></path>
<path d="M199.061 31.208L129.583 100.77V110.31L207.841 32.0522L199.061 31.208Z" fill="#E0BF8C"></path>
<path d="M46.0069 162.566L86.1066 122.382L77.3268 121.538L46.0069 152.942V162.566Z" fill="#E0BF8C"></path>
<path d="M70.9953 200.471L126.459 144.922L125.784 136.058L62.3 199.627L70.9953 200.471Z" fill="#E0BF8C"></path>
<path d="M107.127 123.226L52.5072 177.846V187.47L114.387 125.505L107.127 123.226Z" fill="#E0BF8C"></path>
<path d="M87.9638 214.907L134.142 168.729L133.804 159.527L78.4243 214.907H87.9638Z" fill="#E0BF8C"></path>
<path d="M112.024 223.94L131.187 204.776L130.596 195.743L102.4 223.94H112.024Z" fill="#E0BF8C"></path>
<path d="M128.232 102.374C140.122 102.374 149.76 112.013 149.76 123.902C149.76 135.791 140.122 145.429 128.232 145.429C116.343 145.429 106.705 135.791 106.705 123.902C106.705 112.012 116.343 102.374 128.232 102.374ZM128.232 111.914C121.612 111.914 116.244 117.281 116.244 123.902C116.244 130.522 121.612 135.889 128.232 135.889C134.853 135.889 140.22 130.522 140.22 123.902C140.22 117.281 134.853 111.914 128.232 111.914Z" fill="#E0BF8C"></path>
<path d="M128.232 129.895C131.543 129.895 134.226 127.212 134.226 123.902C134.226 120.591 131.543 117.908 128.232 117.908C124.922 117.908 122.238 120.591 122.238 123.902C122.238 127.212 124.922 129.895 128.232 129.895Z" fill="#E0BF8C"></path>
<path d="M128.401 35.4292V108.201C121.087 108.24 114.996 113.447 113.594 120.356H46.0069V35.4292H128.401ZM59.5137 46.5728V62.6968H62.2159C63.3132 61.8526 64.2418 60.6704 65.086 59.3198C67.0275 56.0275 68.041 52.482 68.041 48.8521H78.3399V106.68L72.9366 108.031V109.381H98.5166V108.031L93.1133 106.68V48.8521H103.413C103.413 52.5665 104.342 56.1119 106.283 59.3198C107.127 60.6704 108.14 61.7682 109.237 62.6968H111.939V46.5728H59.5137Z" fill="#E0BF8C"></path>
<path d="M212.991 122.804L212.146 155.137L206.659 175.229L195.093 195.068L177.956 211.614L151.364 223.855L128.317 227.654V141.951C136.396 141.598 142.837 134.938 142.837 126.772C142.837 125.399 142.654 124.069 142.313 122.804H212.991ZM182.092 138.59C180.151 138.59 178.546 139.266 177.196 140.616C175.845 141.883 174.832 143.74 174.242 146.019L171.624 155.728C170.442 160.455 167.91 162.818 164.196 162.819H160.481V141.545L164.955 140.448V139.35H143.681V140.448L148.156 141.545V189.242L143.681 190.34V191.438H164.955V190.34L160.481 189.242V164.592H167.235L174.326 185.106C175.001 187.132 176.099 188.736 177.534 189.833C178.969 190.931 180.995 191.438 183.612 191.438H192.73V190.424L189.015 189.327L182.261 169.573C180.826 165.352 177.112 163.241 171.034 163.241H169.176C169.851 162.819 170.527 162.313 171.034 161.722C172.215 160.456 173.229 158.429 173.989 155.728L176.605 146.019C176.943 144.584 177.534 143.402 178.293 142.474C179.053 141.545 179.813 140.954 180.658 140.785V151.253L181.586 151.506C182.346 151.591 183.021 151.675 183.697 151.675C185.385 151.675 186.736 151.084 187.917 149.903C189.015 148.721 189.606 147.201 189.606 145.344C189.606 143.402 188.846 141.798 187.495 140.531C186.06 139.265 184.287 138.59 182.092 138.59Z" fill="#E0BF8C"></path>
</g>
<defs>
<clipPath id="clip0_1817_4609">
<rect width="178.971" height="204.297" fill="white" transform="translate(39 28)"></rect>
</clipPath>
</defs>
</svg></svg></g></g></svg></g><g id="dark-icon"><svg xmlns="http://www.w3.org/2000/svg" version="1.1" xmlns:xlink="http://www.w3.org/1999/xlink" width="1000" height="1000"><g clip-path="url(#SvgjsClipPath1056)"><rect width="1000" height="1000" fill="#000e54"></rect><g transform="matrix(3.90625,0,0,3.90625,0,0)"><svg xmlns="http://www.w3.org/2000/svg" version="1.1" xmlns:xlink="http://www.w3.org/1999/xlink" width="256" height="256"><svg width="256" height="256" viewBox="0 0 256 256" fill="none" xmlns="http://www.w3.org/2000/svg">
<rect width="256" height="256" fill="#000E54"></rect>
<g clip-path="url(#clip0_1817_4609)">
<path d="M128.317 227.655H128.148C81.5479 227.655 43.7275 189.834 43.7275 143.234V32.8967H212.99V143.065C212.99 189.75 175.086 227.655 128.317 227.655Z" stroke="#E0BF8C" stroke-width="8.44204" stroke-miterlimit="10"></path>
<path d="M212.906 120.018H143.681V125.084H212.906V120.018Z" fill="#E0BF8C"></path>
<path d="M113.29 120.018H44.0652V125.084H113.29V120.018Z" fill="#E0BF8C"></path>
<path d="M131.018 106.511L131.018 30.5325L125.953 30.5325L125.953 106.511L131.018 106.511Z" fill="#E0BF8C"></path>
<path d="M131.018 227.232L131.018 139.435L125.953 139.435L125.953 227.232H131.018Z" fill="#E0BF8C"></path>
<path d="M119.79 88.6982L175.508 32.9807H165.884L119.79 79.1587V88.6982Z" fill="#E0BF8C"></path>
<path d="M150.097 121.285L215.101 56.3654V46.7415L141.402 120.44L150.097 121.285Z" fill="#E0BF8C"></path>
<path d="M167.657 135.214L213.835 89.036L213.497 79.7498L158.117 135.214H167.657Z" fill="#E0BF8C"></path>
<path d="M57.5725 116.642H44.0652V122.551H57.5725V116.642Z" fill="#E0BF8C"></path>
<path d="M199.061 31.208L129.583 100.77V110.31L207.841 32.0522L199.061 31.208Z" fill="#E0BF8C"></path>
<path d="M46.0069 162.566L86.1066 122.382L77.3268 121.538L46.0069 152.942V162.566Z" fill="#E0BF8C"></path>
<path d="M70.9953 200.471L126.459 144.922L125.784 136.058L62.3 199.627L70.9953 200.471Z" fill="#E0BF8C"></path>
<path d="M107.127 123.226L52.5072 177.846V187.47L114.387 125.505L107.127 123.226Z" fill="#E0BF8C"></path>
<path d="M87.9638 214.907L134.142 168.729L133.804 159.527L78.4243 214.907H87.9638Z" fill="#E0BF8C"></path>
<path d="M112.024 223.94L131.187 204.776L130.596 195.743L102.4 223.94H112.024Z" fill="#E0BF8C"></path>
<path d="M128.232 102.374C140.122 102.374 149.76 112.013 149.76 123.902C149.76 135.791 140.122 145.429 128.232 145.429C116.343 145.429 106.705 135.791 106.705 123.902C106.705 112.012 116.343 102.374 128.232 102.374ZM128.232 111.914C121.612 111.914 116.244 117.281 116.244 123.902C116.244 130.522 121.612 135.889 128.232 135.889C134.853 135.889 140.22 130.522 140.22 123.902C140.22 117.281 134.853 111.914 128.232 111.914Z" fill="#E0BF8C"></path>
<path d="M128.232 129.895C131.543 129.895 134.226 127.212 134.226 123.902C134.226 120.591 131.543 117.908 128.232 117.908C124.922 117.908 122.238 120.591 122.238 123.902C122.238 127.212 124.922 129.895 128.232 129.895Z" fill="#E0BF8C"></path>
<path d="M128.401 35.4292V108.201C121.087 108.24 114.996 113.447 113.594 120.356H46.0069V35.4292H128.401ZM59.5137 46.5728V62.6968H62.2159C63.3132 61.8526 64.2418 60.6704 65.086 59.3198C67.0275 56.0275 68.041 52.482 68.041 48.8521H78.3399V106.68L72.9366 108.031V109.381H98.5166V108.031L93.1133 106.68V48.8521H103.413C103.413 52.5665 104.342 56.1119 106.283 59.3198C107.127 60.6704 108.14 61.7682 109.237 62.6968H111.939V46.5728H59.5137Z" fill="#E0BF8C"></path>
<path d="M212.991 122.804L212.146 155.137L206.659 175.229L195.093 195.068L177.956 211.614L151.364 223.855L128.317 227.654V141.951C136.396 141.598 142.837 134.938 142.837 126.772C142.837 125.399 142.654 124.069 142.313 122.804H212.991ZM182.092 138.59C180.151 138.59 178.546 139.266 177.196 140.616C175.845 141.883 174.832 143.74 174.242 146.019L171.624 155.728C170.442 160.455 167.91 162.818 164.196 162.819H160.481V141.545L164.955 140.448V139.35H143.681V140.448L148.156 141.545V189.242L143.681 190.34V191.438H164.955V190.34L160.481 189.242V164.592H167.235L174.326 185.106C175.001 187.132 176.099 188.736 177.534 189.833C178.969 190.931 180.995 191.438 183.612 191.438H192.73V190.424L189.015 189.327L182.261 169.573C180.826 165.352 177.112 163.241 171.034 163.241H169.176C169.851 162.819 170.527 162.313 171.034 161.722C172.215 160.456 173.229 158.429 173.989 155.728L176.605 146.019C176.943 144.584 177.534 143.402 178.293 142.474C179.053 141.545 179.813 140.954 180.658 140.785V151.253L181.586 151.506C182.346 151.591 183.021 151.675 183.697 151.675C185.385 151.675 186.736 151.084 187.917 149.903C189.015 148.721 189.606 147.201 189.606 145.344C189.606 143.402 188.846 141.798 187.495 140.531C186.06 139.265 184.287 138.59 182.092 138.59Z" fill="#E0BF8C"></path>
</g>
<defs>
<clipPath id="clip0_1817_4609">
<rect width="178.971" height="204.297" fill="white" transform="translate(39 28)"></rect>
</clipPath>
<clipPath id="SvgjsClipPath1056"><rect width="1000" height="1000" x="0" y="0" rx="0" ry="0"></rect></clipPath></defs>
</svg></svg></g></g></svg></g></svg>