<svg xmlns="http://www.w3.org/2000/svg" version="1.1" xmlns:xlink="http://www.w3.org/1999/xlink" width="256" height="256"><svg width="256" height="256" viewBox="0 0 256 256" fill="none" xmlns="http://www.w3.org/2000/svg">
<rect width="256" height="256" rx="48" fill="#000E54"></rect>
<path d="M69.8728 189.306H184.87V179.253H69.8728V189.306Z" fill="#E0BF8C"></path>
<path d="M163.451 116.026L127.294 83.5728L91.3128 116.026L47.2188 96.0955L68.3839 165.764H187.085L207.368 96.0955L163.451 116.026ZM180.383 154.123H75.2626L63.4454 116.026L94.8403 130.665L127.999 100.152L160.276 130.665L191.671 116.026L180.383 154.123Z" fill="#E0BF8C"></path>
<path d="M53.7598 108.944L71.0334 161.28H185.885L202.24 108.944L166.222 124.991L128 94.72L94.7388 122.985L53.7598 108.944Z" fill="#E0BF8C"></path>
<path d="M127.293 76.5176C132.164 76.5176 136.112 72.5693 136.112 67.6988C136.112 62.8283 132.164 58.88 127.293 58.88C122.423 58.88 118.474 62.8283 118.474 67.6988C118.474 72.5693 122.423 76.5176 127.293 76.5176Z" fill="#E0BF8C"></path>
<path d="M207.544 90.6276C212.415 90.6276 216.363 86.6793 216.363 81.8088C216.363 76.9383 212.415 72.99 207.544 72.99C202.674 72.99 198.726 76.9383 198.726 81.8088C198.726 86.6793 202.674 90.6276 207.544 90.6276Z" fill="#E0BF8C"></path>
<path d="M47.2187 90.6276C52.0892 90.6276 56.0375 86.6793 56.0375 81.8088C56.0375 76.9383 52.0892 72.99 47.2187 72.99C42.3482 72.99 38.3999 76.9383 38.3999 81.8088C38.3999 86.6793 42.3482 90.6276 47.2187 90.6276Z" fill="#E0BF8C"></path>
</svg><style>@media (prefers-color-scheme: light) { :root { filter: none; } }
@media (prefers-color-scheme: dark) { :root { filter: none; } }
</style></svg>